<svg xmlns="http://www.w3.org/2000/svg" width="34.667" height="95.999" viewBox="0 0 917 2540" shape-rendering="geometricPrecision" text-rendering="geometricPrecision" image-rendering="optimizeQuality" fill-rule="evenodd" clip-rule="evenodd"><g fill-rule="nonzero"><path d="M459 95c100 0 191 41 258 107 66 66 107 158 107 258v465c0 100-41 192-107 258-67 66-158 107-258 107-101 0-192-41-258-107S93 1025 93 925V460c0-100 42-192 108-258S358 95 459 95zm0 169c25 0 48 10 65 27 16 17 26 40 26 65v172c0 25-10 48-26 65-17 16-40 27-65 27-26 0-49-11-65-27-17-17-27-40-27-65V356c0-25 10-48 27-65 16-17 39-27 65-27zm0 56c-10 0-19 4-26 11-6 6-10 15-10 25v172c0 10 4 19 10 25 7 7 16 11 26 11 9 0 18-4 25-11 6-6 10-15 10-25V356c0-10-4-19-10-25-7-7-16-11-25-11zm0-169c-85 0-163 35-219 91s-90 133-90 218v465c0 85 34 162 90 218s134 91 219 91 162-35 218-91 91-133 91-218V460c0-85-35-162-91-218s-133-91-218-91z" fill="#3e4550"/><path d="M266 1909c-12-9-14-27-5-39 10-12 28-14 40-5l158 126 157-126c13-9 30-7 40 5 9 12 7 30-5 39l-175 140-17 14-18-14-175-140z" fill="#777c83"/><path d="M266 2292c-12-10-14-28-5-40 10-12 28-14 40-4l158 125 157-125c13-10 30-8 40 4 9 12 7 30-5 40l-175 139-17 14-18-14-175-139z" fill="#a9acb1"/><path d="M266 1527c-12-10-14-28-5-40 10-12 28-14 40-4l158 125 157-125c13-10 30-8 40 4 9 12 7 30-5 40l-175 139-17 14-18-14-175-139z" fill="#4f5660"/></g></svg>