<?xml version="1.0" encoding="UTF-8"?>
<!DOCTYPE svg PUBLIC "-//W3C//DTD SVG 1.1//EN" "http://www.w3.org/Graphics/SVG/1.1/DTD/svg11.dtd">
<!-- Creator: CorelDRAW X8 -->
<svg xmlns="http://www.w3.org/2000/svg" xml:space="preserve" width="317.5mm" height="211.667mm" version="1.1" style="shape-rendering:geometricPrecision; text-rendering:geometricPrecision; image-rendering:optimizeQuality; fill-rule:evenodd; clip-rule:evenodd"
viewBox="0 0 31750 21167"
 xmlns:xlink="http://www.w3.org/1999/xlink">
 <defs>
  <style type="text/css">
   <![CDATA[
    .fil0 {fill:#F0EDED;fill-rule:nonzero}
   ]]>
  </style>
 </defs>
 <g id="Слой_x0020_1">
  <metadata id="CorelCorpID_0Corel-Layer"/>
  <g id="_3169526433696">
   <polygon class="fil0" points="20406,16472 20522,16725 20546,16840 20775,16904 20647,17127 20475,17095 20441,17246 20159,17211 19931,17473 19704,17473 19222,17706 19161,17797 19152,17980 18833,18042 18517,18325 18563,18543 18761,18612 18866,18567 18998,18435 19350,18426 19870,18886 20061,18894 20205,18859 20614,19143 20728,19557 20691,19779 20514,19880 20507,19992 20533,20232 20348,20408 20274,20542 20383,20666 20675,20709 20804,20898 21094,20990 21152,20819 21281,20968 21515,20897 21799,20655 21992,20462 22215,20008 22748,19737 22997,19753 23133,19591 23363,19779 23435,19700 23461,19492 23604,19411 23683,19297 23856,19264 23922,18991 24156,18793 24380,18775 24746,19124 25020,19108 25152,18905 25466,19036 25678,18897 25847,18838 25687,18566 25794,18236 25906,18096 26157,18072 26105,17932 25662,17899 25136,17858 24970,18260 24753,18122 24650,17984 24455,18234 24188,18363 23914,18566 23521,18400 23311,18365 23095,18131 23260,17889 23119,17630 22821,17528 22755,17405 22541,17405 22541,17168 22321,17086 22186,16935 22003,16891 21927,16705 21645,16659 21513,16941 21376,16849 21358,16602 21270,16539 21132,16729 20795,16419 20619,16244 "/>
   <polygon class="fil0" points="4573,4413 4749,4314 5039,4579 4914,4794 4963,4915 5134,4871 5346,5138 5625,5072 5907,5139 5997,5099 6000,4999 5891,4930 5962,4827 5991,4664 6235,4646 6235,4487 6350,4504 6342,4403 6464,4334 6787,4292 7178,4444 7227,4344 7208,4103 7351,4044 7458,3933 7458,3710 7642,3635 7599,3472 7418,3468 7367,3280 7585,3176 7623,3075 7359,2924 7244,2629 6862,2629 6862,2308 6800,2183 6929,2111 6926,1953 6809,1850 6794,1703 7011,1440 7013,1292 6818,1082 6535,1176 6393,968 6126,1147 5075,1062 4911,1249 4920,1491 4417,1858 4103,1632 3718,1655 3711,1788 3911,2205 3701,2473 4118,2948 4178,3440 4590,3805 4151,3841 4336,4194 "/>
   <polygon class="fil0" points="12941,3237 12951,3404 13281,3572 13295,3854 13174,3964 13355,4182 13290,4323 13417,4387 13452,4643 13268,4821 13340,5020 13217,5313 13458,5372 13511,5620 13605,5789 13644,6122 13527,6276 13560,6407 13702,6563 13482,6796 13139,6928 13139,7128 13236,7310 13352,7405 13204,7527 13310,7642 13251,7764 13301,7818 13295,7955 13181,8073 13548,8388 13556,8541 13769,8537 13886,8307 14013,8302 14245,8095 14357,8261 14458,8257 14640,8350 14718,8102 14983,8121 15120,7963 15215,8138 15304,8080 15529,8118 15566,7972 15758,7762 15941,7529 15834,7384 15964,7324 15942,6901 16073,6659 16382,6591 16710,6764 16896,6632 17065,6346 17046,6124 17204,5999 17269,5757 17420,5725 17538,5453 17253,5218 17348,5016 17063,4813 16616,5101 16258,5129 15965,4914 16020,4727 15742,4461 15241,4489 15290,4250 15113,4086 14989,3876 15043,3531 14769,3164 14768,3164 14599,3042 14497,2676 14366,2576 13919,2559 13790,2722 13587,2692 13562,2535 13444,2541 13204,2884 13092,2866 13149,3022 "/>
   <polygon class="fil0" points="9830,8562 9987,8440 10193,8601 10341,8536 10358,8351 10305,8002 10138,7687 10206,7569 10259,7381 10280,7269 10207,7151 10340,7022 10117,6853 9869,6595 9942,6242 10080,6202 10101,5931 10034,5682 9921,5763 9706,5562 9403,5225 9542,5058 9429,4801 9332,4812 9184,4834 9005,4949 8841,4931 8590,5192 8362,5460 8200,5575 8047,5575 7910,5780 7776,5761 7821,5877 7764,6074 7657,6265 7635,6503 7729,6776 7757,7183 7544,7401 7643,7709 7690,8045 7574,8242 7645,8527 7576,8778 7558,9118 7622,9281 7582,9629 7831,10003 8017,10013 8082,10238 8131,10218 8145,9934 8274,9940 8329,10031 8390,9848 8579,9864 8654,10046 8768,9901 8875,9926 8900,10020 9031,10013 9116,9907 9254,10014 9360,9857 9541,9535 9523,8853 9691,8604 "/>
   <polygon class="fil0" points="10132,2681 10026,2599 10030,2820 9893,2921 9933,3087 9799,3303 9766,3513 9502,3665 9494,3901 9573,4027 9519,4158 9637,4373 9514,4576 9472,4771 9601,5066 9470,5224 9742,5526 9925,5697 10065,5597 10152,5926 10128,6241 9986,6282 9924,6579 10151,6815 10383,6991 10555,6931 10845,6936 11094,6866 11263,6948 11419,6796 11673,6895 11870,6874 12036,6711 12268,6680 12317,7025 12269,7258 12391,7445 12745,7445 13012,7292 13172,7299 13088,7141 13088,6893 13453,6752 13632,6562 13513,6432 13472,6264 13591,6107 13555,5805 13463,5638 13415,5414 13147,5348 13285,5019 13208,4807 13398,4624 13370,4420 13223,4347 13295,4190 13103,3959 13243,3833 13232,3605 12902,3436 12888,3218 13090,3010 13034,2857 12913,2838 12740,2591 12766,2310 12650,2132 12527,2126 12409,2397 12177,2397 12085,2558 12065,2876 11840,2629 11815,2331 11542,2248 11402,2424 11182,2076 11011,2310 10736,2357 10605,2118 10525,2448 10372,2539 10286,2461 "/>
   <polygon class="fil0" points="5438,8695 5640,8700 5693,8797 5821,8870 5903,9069 6215,9055 6514,9279 6559,9550 6739,9623 6972,9821 7183,9700 7318,9799 7441,10020 7719,10082 7783,10024 7529,9642 7570,9288 7507,9126 7525,8770 7592,8526 7519,8234 7637,8034 7593,7720 7486,7388 7705,7164 7679,6786 7583,6509 7607,6250 7717,6054 7767,5880 7696,5698 7709,5514 7436,5485 7261,5541 7023,5747 6708,5728 6551,5703 6466,5812 6425,6155 6369,6396 6109,6541 5848,6527 5765,6626 5808,6866 5586,6895 5452,7110 5212,7177 5108,7327 5238,7445 5280,7717 5359,8000 5294,8158 5283,8284 5489,8284 5529,8397 5355,8517 "/>
   <polygon class="fil0" points="6858,1825 6976,1929 6981,2141 6867,2204 6913,2296 6913,2579 7280,2579 7400,2888 7686,3053 7625,3213 7428,3308 7458,3418 7638,3422 7703,3666 7509,3744 7509,3954 7380,4087 7262,4136 7279,4355 7202,4508 6781,4344 6481,4383 6396,4431 6406,4565 6286,4546 6286,4694 6034,4712 6010,4847 5963,4915 6052,4972 6047,5133 5928,5185 5875,5307 5903,5345 6035,5272 6110,5395 6051,5507 6039,5737 6159,5940 6397,5960 6417,5792 6530,5648 6713,5677 7005,5695 7236,5495 7431,5433 7763,5468 7748,5690 7755,5706 7886,5725 8020,5524 8183,5524 8327,5422 8552,5157 8822,4878 8993,4896 9165,4785 9325,4762 9424,4750 9466,4556 9578,4372 9462,4162 9516,4032 9442,3914 9452,3635 9719,3481 9750,3285 9878,3078 9836,2900 9979,2794 9974,2492 10121,2608 10257,2413 10293,2188 10177,2203 10041,2050 9838,2228 9688,2207 9662,1948 9515,1896 9515,1710 9288,1652 9206,1776 9013,1776 8691,1538 8354,1564 8243,1410 7928,1419 7750,1173 7405,1198 7310,1126 7064,1296 7062,1459 6847,1719 "/>
   <polygon class="fil0" points="1916,8392 2004,8622 2284,8675 2482,8955 2706,8999 2883,9176 2952,8920 2961,8584 3123,8413 3305,8136 3482,8189 3722,8113 4044,8127 4311,8072 4525,8094 4573,8018 4424,7938 4403,7743 4486,7506 4529,7249 4734,7183 4991,7221 5070,7293 5180,7133 5419,7066 5555,6847 5748,6822 5710,6611 5825,6475 6097,6489 6324,6363 6375,6146 6391,6010 6128,5989 5987,5750 6001,5493 6051,5397 6017,5340 5888,5411 5817,5314 5873,5184 5625,5125 5326,5195 5114,4929 4933,4975 4857,4790 4974,4589 4742,4376 4566,4476 4344,4271 4358,4559 4141,4830 3641,4864 3449,5172 2835,5641 2477,6050 1875,6576 1619,6931 1650,7137 1834,7408 1656,7788 1880,8029 "/>
   <polygon class="fil0" points="16995,11575 17268,11795 17204,12080 17553,12063 17692,12227 17889,12012 18163,12070 18420,12148 18645,12050 18658,11820 18719,11550 18889,11618 19118,11398 19299,11456 19768,11018 20062,10789 19913,10165 20482,9787 20195,9642 20075,9467 20244,9388 20540,9420 20609,9380 20334,9165 20052,9169 19699,9103 19636,8816 19324,8714 18829,8697 18835,8711 18830,8973 18391,9129 18144,8858 17868,8845 17724,9002 17684,9303 17478,9181 17233,9421 17120,9200 16921,9183 16648,9229 16657,9423 16419,9733 16191,9667 15955,9771 15692,9674 15239,9640 15000,9913 14955,10240 14741,10119 14430,10448 14313,10331 14099,10467 13933,10668 13778,10554 13661,10675 13949,10887 14020,11046 14099,11208 14414,11216 14464,11273 14606,11148 14938,11167 15073,11241 15211,11077 15337,11066 15424,11227 15637,11134 15810,10962 16062,11002 16195,11298 16469,11243 16644,11290 16634,11420 16825,11251 17117,11277 17074,11508 "/>
   <polygon class="fil0" points="25820,9664 25645,9776 25590,9549 25500,9530 25469,9658 25284,9647 25165,9520 24987,9821 24809,9850 24776,9600 24540,9428 24523,9216 24271,9122 24239,8844 24085,8755 23851,8944 23575,8804 23251,8800 22787,8380 22509,8385 22286,8389 22106,8411 21892,8536 21679,8616 21394,8905 21327,9101 21417,9262 21356,9527 21024,9517 20748,9430 20659,9410 20552,9473 20253,9441 20151,9488 20230,9602 20583,9781 19971,10188 20119,10809 19801,11057 19330,11497 19309,11725 19413,11851 19375,12223 19212,12378 19230,12466 19356,12617 19519,12591 19811,12682 19878,12816 20191,12561 20428,12793 20816,12732 21148,12668 21428,12761 21645,12657 21954,12523 22215,12564 22607,12518 22657,12121 22507,12035 22538,11828 22421,11795 22370,11664 22515,11503 22382,11406 22428,11065 22581,11106 22731,11022 23221,11017 23391,10961 23576,11071 23861,10872 24116,11045 24357,10919 24387,11056 24547,11074 24537,11251 24680,11421 24622,11582 24669,11626 24830,11555 24974,11664 25065,11581 25294,11581 25347,11479 25501,11332 25382,11225 25417,10893 25694,10872 25744,10973 25912,10976 25953,10814 25877,10717 25965,10655 25969,10444 25776,10336 25762,9909 25873,9717 "/>
   <polygon class="fil0" points="23046,5332 22876,5390 22712,5634 22532,5569 22274,5810 22266,5809 22229,5930 22287,6041 22109,6215 22179,6270 22218,6429 22466,6469 22526,6576 22746,6528 22746,6808 22908,7007 23025,6999 23116,6908 23210,7040 23163,7127 23295,7245 23214,7369 23289,7524 23021,7520 23091,7643 23031,7840 22841,8035 22594,7981 22542,7925 22478,8010 22436,8196 22522,8333 22806,8329 23271,8749 23588,8753 23845,8884 24080,8694 24287,8813 24318,9085 24571,9180 24589,9401 24823,9572 24853,9791 24955,9775 25156,9436 25307,9597 25429,9604 25458,9487 25445,9042 25620,9114 25746,9001 25940,9001 26040,9078 26100,8958 26431,8622 26471,8407 26662,8150 26846,8385 26960,8279 27053,8366 27057,8506 27265,8558 27325,8665 27536,8628 27724,8494 27733,8315 27724,8070 27571,7869 27374,7609 27270,7301 27402,7066 27343,6850 27438,6661 27353,6397 27426,6180 27438,6023 27129,5681 26933,5655 26621,5308 26645,5019 26415,5028 26339,4748 26092,4777 26076,4965 25871,5087 25456,5061 25166,5320 25148,5517 24978,5548 24677,5174 24576,5352 24411,5332 24166,4951 23757,4967 23420,5348 23357,5263 23237,5379 "/>
   <polygon class="fil0" points="21083,5158 21005,4887 20746,5070 20471,4916 20186,5117 19911,5042 19568,5042 19404,4924 19326,5006 19090,5015 18743,5340 18530,5444 18183,5421 17985,5296 17884,5374 17719,5534 17582,5478 17470,5739 17777,5968 17818,6199 18111,6460 18049,6775 18318,6903 18355,7101 18720,7407 18583,8064 18809,8645 19333,8663 19679,8777 19742,9059 20057,9118 20352,9114 20666,9359 20761,9381 21033,9466 21315,9474 21362,9270 21272,9106 21349,8878 21650,8572 21870,8489 22089,8361 22282,8338 22462,8335 22382,8206 22430,7987 22538,7846 22621,7934 22824,7979 22986,7814 23035,7650 22933,7467 23207,7472 23155,7365 23228,7254 23098,7138 23150,7044 23109,6987 23047,7049 22884,7060 22695,6826 22695,6591 22500,6634 22433,6515 22176,6474 22134,6299 22032,6219 22224,6031 22174,5935 22213,5805 22094,5796 21834,5930 21412,5975 21474,5668 21245,5484 21263,5295 "/>
   <polygon class="fil0" points="14008,10350 14085,10416 14321,10266 14429,10375 14732,10055 14915,10159 14951,9891 15217,9587 15703,9624 15953,9716 16187,9613 16400,9674 16605,9407 16595,9186 16918,9132 17152,9151 17247,9336 17470,9117 17644,9220 17676,8979 17847,8793 18167,8808 18406,9069 18780,8937 18784,8720 18530,8068 18664,7426 18308,7128 18273,6938 17991,6804 18055,6479 17771,6225 17731,5997 17432,5775 17310,5801 17249,6028 17099,6147 17117,6358 16934,6667 16714,6824 16375,6645 16107,6704 15994,6913 16017,7356 15912,7404 16004,7530 15797,7794 15612,7997 15567,8176 15315,8133 15196,8211 15111,8052 15004,8174 14755,8156 14671,8423 14447,8308 14331,8313 14235,8172 14034,8353 13918,8357 13801,8587 13558,8592 13563,8679 13325,8854 13341,8975 13459,8936 13429,9153 13532,9183 13575,9436 13624,9624 13785,9629 13812,9869 14000,9883 13995,10122 "/>
   <polygon class="fil0" points="19617,899 19462,1054 19467,1280 19108,1459 19011,1644 19024,1863 19141,1935 19178,2529 18940,2745 19078,3035 18873,3331 18900,3468 19248,3694 19287,4039 19160,4166 19264,4400 19073,4591 19190,4751 19116,4963 19303,4956 19397,4857 19584,4991 19918,4991 20176,5061 20468,4856 20743,5009 21034,4804 21128,5128 21317,5271 21299,5461 21530,5647 21476,5917 21820,5880 22083,5744 22255,5757 22520,5511 22692,5573 22844,5347 23044,5279 23222,5323 23327,5221 23208,5059 23224,4929 22966,4887 22885,4464 22977,4137 22659,3604 22751,3479 22666,3381 22423,3480 22354,3079 22074,3086 21811,3197 21535,3216 21518,3026 21215,3018 21018,3126 20880,2998 20997,2772 20737,2598 20869,2447 20869,2254 20597,1964 20761,1761 21084,1703 21106,1547 20562,1021 20554,638 20060,176 20056,176 19683,454 19591,234 19482,224 19361,639 "/>
   <polygon class="fil0" points="15043,3866 15153,4053 15346,4232 15305,4435 15761,4409 16078,4711 16024,4894 16273,5076 16600,5051 17065,4751 17412,4999 17316,5204 17582,5423 17708,5474 17851,5335 17983,5234 18200,5371 18520,5392 18714,5298 19058,4976 19133,4760 19006,4586 19203,4389 19099,4154 19234,4020 19200,3724 18854,3499 18818,3320 19019,3030 18877,2733 19126,2507 19091,1965 18974,1892 18959,1633 19070,1421 19415,1249 19411,1033 19545,899 19304,654 19430,219 19141,194 18772,529 18591,452 18399,582 18128,355 17828,362 17769,933 17434,1105 17191,1060 17064,975 16216,934 16015,1181 15901,1001 15629,1001 15581,1210 15232,1551 15110,1993 14974,2027 14911,2230 14919,2419 15022,2504 15022,2758 15135,2837 15086,3118 14827,3156 15097,3517 "/>
   <polygon class="fil0" points="26586,13784 26629,13608 26395,13472 26130,13278 26166,12999 26403,12981 26447,12796 26626,12737 26665,12500 26425,12428 26193,12241 25892,12232 25784,12001 25536,11752 25414,11485 25388,11509 25325,11632 25085,11632 24977,11730 24823,11614 24659,11687 24562,11596 24622,11431 24485,11268 24493,11120 24345,11102 24322,10995 24112,11104 23862,10934 23578,11132 23385,11017 23229,11068 22745,11073 22588,11161 22471,11129 22436,11383 22591,11494 22429,11675 22460,11753 22595,11791 22563,12008 22711,12094 22653,12563 22214,12616 21961,12576 21667,12703 21469,12798 21586,12956 21586,13221 21756,13327 21881,13145 22024,13354 22024,13674 22196,13946 22175,14120 22431,14211 22575,14488 22312,14797 22537,14875 22446,15107 22822,15267 23075,15320 23175,15737 23324,15615 23414,15414 23508,15635 23626,15663 24101,15171 24533,14713 25013,14661 25154,14661 25269,14815 25551,14461 25794,14374 25986,14283 26169,14403 26279,14176 26419,14082 26405,13859 "/>
   <polygon class="fil0" points="22807,15317 22381,15134 22470,14906 22225,14821 22514,14481 22395,14253 22119,14154 22143,13958 21973,13689 21973,13369 21881,13235 21771,13396 21535,13249 21535,12973 21414,12810 21144,12720 20825,12782 20411,12848 20188,12629 19861,12896 19775,12724 19516,12643 19412,12660 19511,12730 19526,13042 19370,13058 19416,13137 19493,13200 19512,13577 19443,13668 19215,13739 19123,13915 19359,14048 19410,14230 19291,14249 19291,14425 19070,14465 19070,14646 18768,14698 18681,14528 18512,14528 18436,14644 18194,14674 18163,14816 17992,14699 17924,14770 17866,14892 17533,14922 17579,15045 17846,15256 18094,15220 18121,15293 18463,15339 18228,15667 17949,15469 17609,15444 17159,15435 17019,15345 16775,15438 16969,15676 17217,15543 17459,15656 17721,15611 17775,15825 17448,15957 17292,15899 17170,16021 17202,16110 17456,16142 17730,16106 17901,16311 18067,16293 18203,16575 18471,16551 18779,16414 19080,16440 19425,16423 19533,16266 19620,16404 19826,16145 19902,16459 20102,16483 20229,16557 20405,16401 20405,16401 20611,16181 20746,15973 20904,16141 21049,16013 21305,16285 21503,15879 21769,16265 21866,16104 22061,16260 22155,16374 22049,16471 22158,16674 22303,16632 22357,16414 22312,16203 22503,16128 22599,16256 22554,16410 22554,16536 22684,16611 22776,16498 22800,16289 22740,16082 22813,15832 22929,15938 23131,15773 23033,15363 "/>
   <polygon class="fil0" points="29632,10748 29293,10734 29239,10476 28991,10463 28844,10151 28607,10186 28502,10087 28591,9929 28503,9768 28284,9678 28156,9346 28193,9053 28171,8770 28015,8564 27756,8534 27556,8676 27298,8721 27232,8602 27007,8546 27002,8389 26960,8349 26840,8460 26663,8234 26519,8428 26479,8647 26142,8988 26058,9156 25923,9052 25765,9052 25630,9174 25498,9119 25508,9480 25632,9506 25677,9694 25827,9599 25936,9708 25813,9922 25826,10306 26021,10414 26015,10682 25950,10728 26009,10802 25951,11028 25713,11023 25664,10925 25463,10940 25435,11204 25577,11331 25454,11448 25578,11723 25826,11971 25925,12182 26212,12190 26449,12382 26723,12464 26671,12776 26490,12835 26444,13029 26211,13047 26184,13255 26423,13429 26687,13583 26630,13822 26459,13892 26469,14049 26772,13847 26933,13790 27048,13882 27336,13355 27506,13295 27594,13392 27783,13377 27859,13266 28357,13257 28447,13437 28535,13173 28439,12945 28641,12742 28413,12677 28571,12407 28571,11897 28852,11743 29080,11709 29322,11540 29409,11055 29721,11022 29700,10824 "/>
   <polygon class="fil0" points="31234,9763 30964,9840 31070,9551 30903,9351 30911,9100 30581,9049 30562,8652 30782,8404 31058,8447 31189,8345 31167,8255 30993,8342 30825,8201 30623,8193 30440,8086 30490,7875 30839,7773 30897,7560 31149,7241 31117,6970 30837,6664 31034,6359 30805,6412 30574,6652 30410,6534 30169,6542 30074,6221 29867,6152 29644,6268 29360,5883 29102,6149 28819,5972 28635,5972 28476,5778 28179,5827 27902,5763 27868,5576 27734,5551 27701,5929 27489,6031 27477,6190 27406,6397 27493,6665 27398,6855 27456,7072 27326,7306 27420,7585 27612,7838 27774,8052 27784,8315 27776,8485 28043,8515 28221,8751 28244,9054 28208,9339 28324,9639 28539,9728 28649,9929 28566,10077 28624,10132 28874,10095 29024,10414 29281,10427 29335,10684 29655,10697 29749,10802 29773,11026 29916,11132 30143,10978 30256,10947 30399,11106 30644,10992 30924,11043 31087,10946 30996,10455 31057,10256 31092,9973 31307,9853 "/>
   <polygon class="fil0" points="4435,10774 4444,10472 4165,10188 4018,10290 3867,10177 3859,9796 3645,9887 3411,9688 3299,9418 3085,9256 2885,9251 2680,9046 2453,9001 2254,8721 1966,8666 1860,8388 1640,8175 1439,8158 1389,8049 1306,8055 1249,8343 901,8615 833,9079 747,9204 544,9229 443,9416 462,9684 663,9696 791,10195 1096,10220 1221,10644 1500,10530 1656,10933 1894,10933 2134,10627 2586,11091 2762,10966 3234,11298 3480,11130 3862,11500 4223,11225 4568,11287 4612,11094 4620,10950 "/>
   <polygon class="fil0" points="9537,9892 9396,9896 9266,10088 9124,9978 9056,10062 8862,10073 8834,9969 8788,9958 8640,10146 8544,9913 8426,9902 8342,10152 8244,9990 8193,9988 8180,10254 8048,10306 7978,10062 7826,10055 7734,10137 7408,10065 7279,9834 7179,9761 6966,9884 6712,9667 6540,9598 6387,9716 6462,9893 6453,10120 6266,10318 6190,10242 6003,10290 5728,10561 5446,10835 5189,11131 5159,11442 5257,11577 5103,11929 5331,11929 5777,11508 6618,11508 6747,11354 7280,11404 7585,10871 8297,10807 8455,10372 8784,10569 8922,10431 9202,10546 9381,10353 9549,10431 9728,10274 9657,10045 "/>
   <polygon class="fil0" points="5107,11456 5140,11109 5409,10800 5693,10525 5977,10244 6205,10185 6265,10244 6402,10099 6411,9902 6324,9700 6508,9558 6467,9308 6199,9107 5870,9121 5780,8905 5656,8834 5609,8750 5405,8746 5290,8500 5468,8377 5453,8336 5227,8336 5243,8146 5305,7997 5230,7728 5190,7470 4968,7270 4738,7236 4574,7288 4536,7518 4455,7749 4471,7906 4646,7998 4551,8148 4314,8124 4048,8178 3729,8164 3483,8242 3326,8196 3163,8445 3011,8605 3003,8927 2929,9201 3103,9205 3341,9385 3454,9657 3654,9828 3908,9720 3918,10151 4020,10227 4171,10122 4496,10451 4487,10753 4672,10929 4662,11101 4615,11310 5061,11898 5199,11583 "/>
   <polygon class="fil0" points="17881,14741 17985,14632 18130,14731 18152,14628 18407,14596 18484,14477 18712,14477 18796,14641 19018,14603 19018,14423 19239,14382 19239,14206 19345,14189 19315,14082 19055,13936 19180,13697 19412,13624 19460,13561 19443,13225 19376,13171 19286,13016 19473,12996 19461,12757 19329,12663 19183,12489 19156,12361 19326,12199 19360,11867 19257,11741 19278,11503 19132,11455 18901,11677 18756,11619 18709,11827 18694,12084 18423,12203 18150,12119 17907,12068 17690,12304 17531,12116 17140,12135 17211,11815 16916,11576 17027,11481 17056,11323 16842,11304 16573,11542 16590,11328 16468,11295 16165,11356 16027,11048 15828,11016 15667,11177 15402,11292 15308,11120 15236,11126 15085,11306 14923,11217 14624,11200 14498,11311 14546,11365 14372,11464 14459,11663 14592,11762 14560,12060 14755,12204 14710,12549 14944,12609 15189,12557 15255,12651 15345,12530 15576,12828 15501,13086 15484,13332 15618,13533 15807,13569 15912,13483 16092,13600 15969,13740 16173,13828 16317,14001 16216,14316 15917,14312 15833,14374 15851,14484 16120,14698 16120,14947 16012,15138 16188,15138 16322,15240 16607,14971 16647,14782 16802,14878 16783,15038 16769,15207 16837,15191 16938,15063 17239,15217 17393,15070 17332,14832 17480,14782 17514,14873 17832,14844 "/>
   <polygon class="fil0" points="16068,14722 15804,14512 15778,14352 15901,14261 16179,14265 16259,14012 16142,13870 15885,13759 16015,13610 15915,13547 15821,13623 15587,13579 15432,13346 15451,13077 15520,12839 15346,12614 15255,12737 15167,12614 14943,12662 14654,12587 14700,12228 14506,12083 14538,11786 14418,11696 14307,11443 14466,11352 14391,11267 14066,11258 13984,11089 13783,11161 13611,11075 13438,11130 13410,11365 13063,11385 12986,11271 12850,11395 12596,11365 12427,11201 12298,11215 12289,11423 12053,11564 12225,11812 12413,11611 12605,11817 12605,12090 12696,12312 12577,12604 12446,12888 12764,13059 12991,13512 13134,13297 13310,13425 13268,13579 13218,13940 13335,14123 13232,14362 13522,14550 13769,14532 13916,14845 13857,15195 13909,15336 13837,15464 14125,15720 14018,15921 13637,15807 13458,15596 13249,15888 12963,15697 12950,15557 12533,15941 12460,15720 12475,15435 12226,15501 12050,15677 12002,16122 12250,16308 12053,16550 12088,16825 11692,16928 11649,17283 11369,17397 11187,17627 11278,17859 11220,18111 10837,18058 10662,18121 10790,18301 10856,18567 11243,18747 11622,18826 11692,18380 11861,18492 11921,18704 12520,18270 12960,18270 13275,18449 13333,18812 13438,18614 13406,18309 13198,18155 13292,18035 13132,17907 13149,17559 13245,17224 13448,17363 13439,17690 13536,17792 13566,17672 13538,17475 13760,17432 13744,17252 13965,17112 14065,17252 14176,17046 14290,17211 14551,16823 14733,16657 14537,16368 14195,16257 14102,16070 14111,15961 14249,15716 14537,15806 14738,16189 14872,16428 15089,16151 15072,15880 15320,15760 15338,15389 15633,15327 15907,15138 15954,15138 16068,14934 "/>
   <polygon class="fil0" points="12249,11169 12445,11147 12619,11316 12833,11341 12995,11194 13089,11332 13365,11317 13391,11092 13615,11020 13786,11106 13962,11042 13908,10920 13583,10681 13773,10486 13925,10598 14047,10451 13958,10374 13944,10123 13948,9930 13766,9917 13739,9679 13584,9674 13525,9446 13487,9223 13373,9190 13397,9010 13299,9043 13270,8830 13510,8654 13498,8412 13107,8077 13245,7934 13249,7837 13190,7773 13249,7651 13130,7522 13271,7405 13207,7352 13024,7343 12759,7496 12363,7496 12215,7268 12266,7023 12225,6737 12060,6760 11893,6922 11666,6947 11431,6856 11273,7010 11089,6921 10852,6987 10564,6982 10393,7042 10272,7159 10334,7258 10309,7392 10254,7589 10196,7688 10354,7986 10409,8349 10389,8571 10186,8660 9987,8505 9854,8608 9723,8648 9575,8868 9593,9548 9426,9844 9561,9840 9703,10021 9780,10267 9969,10409 10203,10383 10472,10704 10702,10718 10702,10910 11087,10947 11322,11294 11514,11162 11922,11243 12015,11509 12024,11522 12240,11394 "/>
   <path class="fil0" d="M15314 5841c0,144 -116,260 -259,260 -144,0 -260,-116 -260,-260 0,-143 116,-259 260,-259 143,0 259,116 259,259z"/>
  </g>
 </g>
</svg>
