<?xml version="1.0" encoding="UTF-8"?>
<!DOCTYPE svg PUBLIC "-//W3C//DTD SVG 1.1//EN" "http://www.w3.org/Graphics/SVG/1.1/DTD/svg11.dtd">
<!-- Creator: CorelDRAW X8 -->
<svg xmlns="http://www.w3.org/2000/svg" xml:space="preserve" width="5.6444mm" height="5.6444mm" version="1.1" style="shape-rendering:geometricPrecision; text-rendering:geometricPrecision; image-rendering:optimizeQuality; fill-rule:evenodd; clip-rule:evenodd"
viewBox="0 0 564 564"
 xmlns:xlink="http://www.w3.org/1999/xlink">
 <defs>
  <style type="text/css">
   <![CDATA[
    .fil0 {fill:black}
   ]]>
  </style>
 </defs>
 <g id="Слой_x0020_1">
  <metadata id="CorelCorpID_0Corel-Layer"/>
  <path class="fil0" d="M346 412c4,1 5,-4 7,-10 2,-19 5,-28 15,-45 1,-2 1,-3 2,-5l150 105c-19,19 -54,34 -69,38 -162,45 -428,-169 -420,-336 0,-16 7,-53 21,-76l136 123c-1,1 -3,3 -4,3 -14,14 -23,18 -41,25 -6,3 -11,5 -8,9 50,73 128,135 211,169l0 0zm-149 -218c6,-9 8,-19 1,-30 -11,-18 -90,-90 -104,-97 -13,-7 -24,-4 -33,5l136 122zm182 147c9,-8 19,-12 30,-8 20,6 107,69 118,80 9,12 9,23 2,33l-150 -105 0 0z"/>
 </g>
</svg>
