<?xml version="1.0" encoding="UTF-8"?>
<!DOCTYPE svg PUBLIC "-//W3C//DTD SVG 1.1//EN" "http://www.w3.org/Graphics/SVG/1.1/DTD/svg11.dtd">
<!-- Creator: CorelDRAW X8 -->
<svg xmlns="http://www.w3.org/2000/svg" xml:space="preserve" width="8.4666mm" height="8.4666mm" version="1.1" style="shape-rendering:geometricPrecision; text-rendering:geometricPrecision; image-rendering:optimizeQuality; fill-rule:evenodd; clip-rule:evenodd"
viewBox="0 0 847 847"
 xmlns:xlink="http://www.w3.org/1999/xlink">
 <defs>
  <style type="text/css">
   <![CDATA[
    .fil0 {fill:black}
   ]]>
  </style>
 </defs>
 <g id="Слой_x0020_1">
  <metadata id="CorelCorpID_0Corel-Layer"/>
  <path class="fil0" d="M712 505c30,30 53,55 68,74 8,14 10,26 8,36 -4,9 -10,15 -22,15l-117 4c-15,2 -37,-8 -60,-29 -24,-22 -39,-39 -47,-53 -10,-18 -43,-23 -51,2l-4 47c-2,27 -23,29 -45,31 -31,2 -58,0 -82,-4 -62,-11 -117,-67 -156,-113 -59,-82 -101,-154 -129,-215 -12,-23 -17,-43 -17,-58 4,-6 13,-8 25,-10 22,-3 85,-3 108,0 9,1 16,8 23,19 29,67 58,118 86,155 19,17 31,15 37,-8 2,0 4,-29 4,-88 2,-37 -14,-61 -45,-68 8,-20 33,-30 74,-30 23,0 90,0 107,16 8,8 10,18 10,31 0,39 -12,102 0,139 4,8 10,13 16,17 15,-11 25,-17 37,-35 27,-41 47,-82 68,-127 6,-11 10,-17 12,-19 4,-2 10,-2 23,-2l110 0c13,0 21,0 23,0 2,2 6,4 10,10 8,9 2,33 -22,68 -23,35 -45,64 -66,88 -19,21 -28,40 -26,56 2,19 27,38 40,51z"/>
 </g>
</svg>
