<?xml version="1.0" encoding="UTF-8"?>
<!DOCTYPE svg PUBLIC "-//W3C//DTD SVG 1.1//EN" "http://www.w3.org/Graphics/SVG/1.1/DTD/svg11.dtd">
<!-- Creator: CorelDRAW X8 -->
<svg xmlns="http://www.w3.org/2000/svg" xml:space="preserve" width="8.4666mm" height="8.4666mm" version="1.1" style="shape-rendering:geometricPrecision; text-rendering:geometricPrecision; image-rendering:optimizeQuality; fill-rule:evenodd; clip-rule:evenodd"
viewBox="0 0 847 847"
 xmlns:xlink="http://www.w3.org/1999/xlink">
 <defs>
  <style type="text/css">
   <![CDATA[
    .fil0 {fill:black}
   ]]>
  </style>
 </defs>
 <g id="Слой_x0020_1">
  <metadata id="CorelCorpID_0Corel-Layer"/>
  <path class="fil0" d="M730 457c2,-2 0,2 2,-2l4 -15c50,0 72,-12 97,-37 -41,2 -50,2 -90,-8 24,-8 57,-4 86,-47 -13,6 -27,8 -48,8 -10,2 -45,0 -47,-8 -4,-12 -4,-19 -12,-39 -37,-88 -84,-92 -164,-115 6,-4 27,-8 35,-10 39,-12 35,-25 26,-29 -12,-4 -41,8 -55,12l23 -26c-25,4 -41,16 -58,27l8 -19c-26,8 -67,64 -79,86l-50 109c-4,0 -33,-31 -57,-45 -19,-11 -45,-23 -68,-35 -55,-25 -94,-39 -149,-60 -3,48 28,76 67,101l-47 8c2,47 47,66 84,80l4 2c-33,6 -43,6 -51,19 12,41 68,49 98,53 -16,6 -39,18 -30,45l55 25c-2,6 -20,20 -27,24 -32,23 -69,39 -117,41 -34,2 -67,-4 -92,-16 -29,-12 -41,-21 -65,-39 8,12 22,27 32,37 179,190 548,153 665,-78 4,-10 20,-39 20,-49l0 0 0 0z"/>
 </g>
</svg>
