<?xml version="1.0" encoding="UTF-8"?>
<!DOCTYPE svg PUBLIC "-//W3C//DTD SVG 1.1//EN" "http://www.w3.org/Graphics/SVG/1.1/DTD/svg11.dtd">
<!-- Creator: CorelDRAW X8 -->
<svg xmlns="http://www.w3.org/2000/svg" xml:space="preserve" width="8.4666mm" height="8.4666mm" version="1.1" style="shape-rendering:geometricPrecision; text-rendering:geometricPrecision; image-rendering:optimizeQuality; fill-rule:evenodd; clip-rule:evenodd"
viewBox="0 0 847 847"
 xmlns:xlink="http://www.w3.org/1999/xlink">
 <defs>
  <style type="text/css">
   <![CDATA[
    .fil0 {fill:black}
   ]]>
  </style>
 </defs>
 <g id="Слой_x0020_1">
  <metadata id="CorelCorpID_0Corel-Layer"/>
  <path class="fil0" d="M627 723c-5,0 -10,-2 -14,-5l-169 -114 -90 65c-7,5 -16,6 -24,3 -9,-3 -15,-9 -17,-18l-45 -172 -162 -62c-10,-3 -17,-13 -17,-24 0,-11 6,-21 16,-25l616 -245c3,-1 6,-2 9,-2 1,0 2,0 3,0 6,0 12,3 17,8 0,0 1,1 1,1 4,5 6,10 7,16 0,1 0,2 0,4 0,1 0,2 -1,3l-104 545c-1,9 -7,16 -15,20 -4,1 -7,2 -11,2zm-168 -173l150 102 81 -425 -292 281 60 41c1,1 1,1 1,1zm-125 -23l20 76 44 -31 -57 -38c-3,-2 -5,-4 -7,-7zm-146 -132l111 43c8,3 14,9 16,18l15 53c0,-6 3,-12 8,-16l278 -268 -428 170z"/>
 </g>
</svg>
