<?xml version="1.0" encoding="UTF-8" standalone="no"?>
<svg
   xmlns:dc="http://purl.org/dc/elements/1.1/"
   xmlns:cc="http://creativecommons.org/ns#"
   xmlns:rdf="http://www.w3.org/1999/02/22-rdf-syntax-ns#"
   xmlns:svg="http://www.w3.org/2000/svg"
   xmlns="http://www.w3.org/2000/svg"
   id="svg8942"
   viewBox="0 0 1481 1481"
   style="clip-rule:evenodd;fill-rule:evenodd;image-rendering:optimizeQuality;shape-rendering:geometricPrecision;text-rendering:geometricPrecision"
   version="1.1"
   height="14.80781mm"
   width="14.80781mm"
   xml:space="preserve"><metadata
   id="metadata8946"><rdf:RDF><cc:Work
       rdf:about=""><dc:format>image/svg+xml</dc:format><dc:type
         rdf:resource="http://purl.org/dc/dcmitype/StillImage" /><dc:title></dc:title></cc:Work></rdf:RDF></metadata>
 <defs
   id="defs8933">
  <style
   id="style8931"
   type="text/css">
   <![CDATA[
    .fil0 {fill:#E6E6E6}
    .fil1 {fill:#3E4550;fill-rule:nonzero}
   ]]>
  </style>
 </defs>
 <g
   transform="translate(-71,-71)"
   id="Слой_x0020_1">
  <metadata
   id="CorelCorpID_0Corel-Layer" />
  <g
   id="_3169505739024">
   <path
   style="fill:#e6e6e6"
   id="path8936"
   d="m 317,71 h 988 c 136,0 247,111 247,246 v 988 c 0,136 -111,247 -247,247 H 317 C 182,1552 71,1441 71,1305 V 317 C 71,182 182,71 317,71 Z m 988,35 H 317 c -58,0 -111,24 -149,62 v 0 c -38,38 -62,91 -62,149 v 988 c 0,58 24,111 62,150 v 0 c 38,38 91,62 149,62 h 988 c 58,0 111,-24 150,-62 38,-39 62,-92 62,-150 V 317 c 0,-58 -24,-111 -62,-149 -39,-38 -92,-62 -150,-62 z"
   class="fil0" />
   <polygon
   style="fill:#3e4550;fill-rule:nonzero"
   id="polygon8938"
   points="1069,645 1119,695 811,1002 504,695 554,645 811,903 "
   class="fil1" />
  </g>
 </g>
</svg>