<?xml version="1.0" encoding="UTF-8"?>
<!DOCTYPE svg PUBLIC "-//W3C//DTD SVG 1.1//EN" "http://www.w3.org/Graphics/SVG/1.1/DTD/svg11.dtd">
<!-- Creator: CorelDRAW X8 -->
<svg xmlns="http://www.w3.org/2000/svg" xml:space="preserve" width="45.861mm" height="45.861mm" version="1.1" style="shape-rendering:geometricPrecision; text-rendering:geometricPrecision; image-rendering:optimizeQuality; fill-rule:evenodd; clip-rule:evenodd"
viewBox="0 0 4586 4586"
 xmlns:xlink="http://www.w3.org/1999/xlink">
 <defs>
  <style type="text/css">
   <![CDATA[
    .fil0 {fill:#DEDFE6;fill-rule:nonzero}
    .fil2 {fill:url(#id0)}
    .fil1 {fill:url(#id1)}
   ]]>
  </style>
  <linearGradient id="id0" gradientUnits="userSpaceOnUse" x1="2318.14" y1="2176.77" x2="2253.88" y2="1384.28">
   <stop offset="0" style="stop-opacity:1; stop-color:#7ABE41"/>
   <stop offset="1" style="stop-opacity:1; stop-color:#95CD36"/>
  </linearGradient>
  <linearGradient id="id1" gradientUnits="userSpaceOnUse" x1="2222" y1="2500.92" x2="2366.41" y2="1800.23">
   <stop offset="0" style="stop-opacity:1; stop-color:#2C448F"/>
   <stop offset="1" style="stop-opacity:1; stop-color:#603684"/>
  </linearGradient>
 </defs>
 <g id="Слой_x0020_1">
  <metadata id="CorelCorpID_0Corel-Layer"/>
  <g id="_3169505753264">
   <path class="fil0" d="M2293 166c587,0 1119,238 1504,623 385,385 623,917 623,1504 0,587 -238,1119 -623,1504 -385,385 -917,623 -1504,623 -587,0 -1119,-238 -1504,-623 -385,-385 -623,-917 -623,-1504 0,-587 238,-1119 623,-1504 385,-385 917,-623 1504,-623zm1490 637c-382,-381 -908,-617 -1490,-617 -582,0 -1108,236 -1490,617 -381,382 -617,908 -617,1490 0,582 236,1108 617,1490 382,381 908,617 1490,617 582,0 1108,-236 1490,-617 381,-382 617,-908 617,-1490 0,-582 -236,-1108 -617,-1490z"/>
   <path class="fil1" d="M3102 2155l5 -29c5,-45 32,-128 42,-172 -29,9 -49,31 -56,63 -10,35 -37,116 -42,158 17,-8 34,-10 54,-10 -3,-5 -3,-8 -3,-10zm-807 -949c-317,0 -574,257 -574,574 0,318 257,575 574,575 317,0 574,-257 574,-575 0,-317 -257,-574 -574,-574zm0 1087c-282,0 -512,-230 -512,-513 0,-282 230,-512 512,-512 283,0 513,230 513,512 0,283 -230,513 -513,513zm-212 744l0 0 0 0c0,20 0,44 -5,71l-12 241c0,17 -15,32 -32,32l-379 -2c-17,0 -32,-15 -32,-32l-7 -199 -356 -430c-54,-57 -89,-118 -101,-194l-3 -23 -61 -604c-2,-29 7,-61 30,-79 27,-22 71,-32 105,8 22,27 35,108 40,130 12,79 27,192 29,273 0,5 0,12 0,17 2,34 10,66 25,98 78,175 240,396 240,396l10 12c8,10 20,12 32,7 12,-7 15,-22 10,-32l-214 -348c-22,-40 -10,-94 32,-121 42,-24 96,-12 121,27l223 288c15,19 42,46 62,59 201,145 226,290 245,366 -5,0 -5,17 -2,39zm-720 -850c0,7 0,12 0,20 7,-8 15,-13 24,-18 10,-7 23,-12 35,-14 0,0 0,-3 2,-3 -7,-61 -29,-179 -46,-241 -8,-29 -27,-54 -57,-63 7,22 10,41 15,63 10,67 27,190 27,256zm123 -32c0,2 0,5 0,10 17,0 37,5 54,10 -5,-40 -32,-121 -42,-160 -7,-30 -25,-52 -56,-64 9,44 34,128 41,172l3 32zm1872 -332c-22,27 -34,108 -39,131 -13,78 -27,191 -30,272 0,5 0,13 0,17 -2,35 -10,67 -24,99 -79,177 -241,398 -241,398l-10 12c-7,10 -20,12 -32,7 -12,-7 -15,-22 -10,-32l214 -348c22,-40 10,-94 -32,-121 -42,-24 -96,-12 -120,27l-224 288c-15,19 -42,46 -61,59 -202,145 -226,290 -246,366 0,0 -3,17 -3,42l0 0c0,19 0,44 5,71l13 241c0,17 14,32 32,32l383 -5c17,0 32,-15 32,-32l7 -199 359 -430c54,-57 88,-118 101,-194l2 -23 62 -604c2,-29 -8,-61 -30,-79 -29,-24 -74,-32 -108,5zm-157 366c10,5 17,13 24,18 0,-8 0,-13 0,-20 3,-66 18,-189 30,-258 2,-20 7,-42 15,-64 -32,10 -50,32 -57,64 -17,61 -39,179 -47,241 0,0 0,2 3,2 10,5 19,10 32,17z"/>
   <path class="fil2" d="M2286 1383c-219,0 -398,178 -398,398 0,219 179,397 398,397 219,0 398,-178 398,-397 0,-220 -179,-398 -398,-398zm-31 626c-113,-20 -22,-152 -22,-152 95,-155 -27,-118 -27,-118 107,-100 137,-13 137,-13 23,27 -62,209 -62,209 -19,43 68,34 68,34 -37,55 -94,40 -94,40zm47 -350c-30,0 -55,-24 -55,-55 0,-30 25,-55 55,-55 31,0 55,25 55,55 0,31 -24,55 -55,55z"/>
  </g>
 </g>
</svg>
