<?xml version="1.0" encoding="UTF-8"?>
<!DOCTYPE svg PUBLIC "-//W3C//DTD SVG 1.1//EN" "http://www.w3.org/Graphics/SVG/1.1/DTD/svg11.dtd">
<!-- Creator: CorelDRAW X8 -->
<svg xmlns="http://www.w3.org/2000/svg" xml:space="preserve" width="11.2888mm" height="11.2888mm" version="1.1" style="shape-rendering:geometricPrecision; text-rendering:geometricPrecision; image-rendering:optimizeQuality; fill-rule:evenodd; clip-rule:evenodd"
viewBox="0 0 1129 1129"
 xmlns:xlink="http://www.w3.org/1999/xlink">
 <defs>
  <style type="text/css">
   <![CDATA[
    .fil0 {fill:#FEC211}
   ]]>
  </style>
 </defs>
 <g id="Слой_x0020_1">
  <metadata id="CorelCorpID_0Corel-Layer"/>
  <path class="fil0" d="M515 867c-17,55 -85,72 -126,31 -40,-41 -20,-109 34,-122l92 91zm-360 -393c-50,-50 28,-128 78,-78 44,45 193,-101 244,-152 126,-125 268,-122 370,-58 20,-50 84,-64 122,-27 37,41 23,102 -24,122 64,105 64,248 -58,370 -51,50 -196,203 -152,243 51,55 -27,133 -78,78l-502 -498z"/>
 </g>
</svg>
