<?xml version="1.0" encoding="UTF-8"?>
<!DOCTYPE svg PUBLIC "-//W3C//DTD SVG 1.1//EN" "http://www.w3.org/Graphics/SVG/1.1/DTD/svg11.dtd">
<!-- Creator: CorelDRAW X8 -->
<svg xmlns="http://www.w3.org/2000/svg" xml:space="preserve" width="8.4666mm" height="8.4666mm" version="1.1" style="shape-rendering:geometricPrecision; text-rendering:geometricPrecision; image-rendering:optimizeQuality; fill-rule:evenodd; clip-rule:evenodd"
viewBox="0 0 847 847"
 xmlns:xlink="http://www.w3.org/1999/xlink">
 <defs>
  <style type="text/css">
   <![CDATA[
    .fil0 {fill:#FEC211}
   ]]>
  </style>
 </defs>
 <g id="Слой_x0020_1">
  <metadata id="CorelCorpID_0Corel-Layer"/>
  <path class="fil0" d="M380 687c-15,47 -74,61 -109,26 -35,-35 -18,-94 30,-106l79 80zm-312 -342c-44,-44 24,-112 68,-68 38,39 167,-88 212,-132 109,-109 232,-106 320,-50 18,-44 74,-56 106,-24 33,36 21,89 -20,106 56,92 56,215 -50,321 -44,44 -171,177 -133,212 44,47 -23,115 -67,68l-436 -433z"/>
 </g>
</svg>
