<?xml version="1.0" encoding="UTF-8"?>
<!DOCTYPE svg PUBLIC "-//W3C//DTD SVG 1.1//EN" "http://www.w3.org/Graphics/SVG/1.1/DTD/svg11.dtd">
<!-- Creator: CorelDRAW X8 -->
<svg xmlns="http://www.w3.org/2000/svg" xml:space="preserve" width="11.2888mm" height="11.2888mm" version="1.1" style="shape-rendering:geometricPrecision; text-rendering:geometricPrecision; image-rendering:optimizeQuality; fill-rule:evenodd; clip-rule:evenodd"
viewBox="0 0 1129 1129"
 xmlns:xlink="http://www.w3.org/1999/xlink">
 <defs>
  <style type="text/css">
   <![CDATA[
    .fil0 {fill:#86C53C}
    .fil1 {fill:#86C53C;fill-rule:nonzero}
   ]]>
  </style>
 </defs>
 <g id="Слой_x0020_1">
  <metadata id="CorelCorpID_0Corel-Layer"/>
  <path class="fil0" d="M564 141c233,0 424,191 424,423 0,233 -191,424 -424,424 -232,0 -423,-191 -423,-424 0,-232 191,-423 423,-423zm0 71c-97,0 -185,39 -249,103 -64,64 -103,152 -103,249 0,97 39,186 103,250 64,64 152,103 249,103 97,0 186,-39 250,-103 64,-64 103,-153 103,-250 0,-97 -39,-185 -103,-249 -64,-64 -153,-103 -250,-103z"/>
  <polygon class="fil1" points="429,504 520,613 700,399 780,467 520,778 348,572 "/>
 </g>
</svg>
