<?xml version="1.0" encoding="UTF-8"?>
<!DOCTYPE svg PUBLIC "-//W3C//DTD SVG 1.1//EN" "http://www.w3.org/Graphics/SVG/1.1/DTD/svg11.dtd">
<!-- Creator: CorelDRAW X8 -->
<svg xmlns="http://www.w3.org/2000/svg" xml:space="preserve" width="11.2888mm" height="11.2888mm" version="1.1" style="shape-rendering:geometricPrecision; text-rendering:geometricPrecision; image-rendering:optimizeQuality; fill-rule:evenodd; clip-rule:evenodd"
viewBox="0 0 1129 1129"
 xmlns:xlink="http://www.w3.org/1999/xlink">
 <defs>
  <style type="text/css">
   <![CDATA[
    .fil0 {fill:#3E4550}
    .fil1 {fill:#3E4550;fill-rule:nonzero}
   ]]>
  </style>
 </defs>
 <g id="Слой_x0020_1">
  <metadata id="CorelCorpID_0Corel-Layer"/>
  <path class="fil0" d="M591 236l-2 -2c-8,-7 -18,-10 -28,-9 -9,1 -18,5 -25,13l-56 66c-27,-7 -55,-13 -82,-20 -3,-1 -5,-1 -9,-2 -20,-1 -38,14 -40,34 -1,29 -4,59 -6,87l-82 34c-11,6 -18,13 -21,25 -2,10 -1,20 5,29l45 73 -45 74c-6,11 -8,22 -3,34 4,9 11,17 21,20l80 33c2,30 4,60 7,90l0 3c5,20 25,32 45,27l85 -20c19,22 38,47 58,68 9,8 18,12 30,11 9,-1 18,-5 25,-13l56 -66c27,7 54,13 82,20 12,4 25,1 36,-7l0 -1c7,-6 12,-14 13,-24 1,-29 4,-59 6,-88l73 -29c14,-6 25,-12 30,-29 2,-10 0,-20 -5,-29l-45 -74 45 -73c6,-11 8,-22 2,-35 -3,-8 -10,-16 -20,-20l-80 -33c-2,-30 -5,-61 -7,-92 -3,-10 -9,-18 -17,-23 -9,-5 -19,-7 -29,-5l-84 21c-19,-22 -38,-47 -58,-68zm83 -11l43 -10c58,-14 116,22 130,79 4,19 5,42 6,61l40 16c55,23 81,86 59,141 -7,17 -21,36 -31,52l23 37c31,51 15,118 -35,149 -16,9 -39,17 -56,24l-3 43c-5,60 -56,104 -116,100 -18,-2 -41,-9 -60,-13l-28 33c-38,45 -106,50 -151,12 -14,-12 -28,-31 -41,-45l-42 10c-58,14 -116,-22 -130,-80 -4,-18 -5,-42 -6,-60l-40 -17c-55,-22 -81,-85 -59,-140 7,-17 21,-37 30,-53l-22 -36c-31,-51 -16,-118 35,-149 15,-9 39,-17 56,-24l3 -43c4,-60 56,-104 116,-100 18,1 41,9 59,13l29 -33c38,-45 106,-50 151,-12 14,12 28,31 40,45z"/>
  <path class="fil1" d="M517 751c-4,0 -8,-1 -14,-4 -10,-4 -22,-12 -29,-21 -4,-5 -5,-9 -5,-14 2,-10 5,-23 9,-36 4,-14 9,-28 14,-42 8,-27 18,-53 29,-79 4,-10 8,-19 11,-25 3,-7 5,-10 6,-10 1,0 5,1 11,5 5,3 12,6 18,11 6,5 12,9 17,14 5,5 8,9 8,13 0,1 0,2 -1,3 0,1 0,2 -1,4 -2,6 -4,13 -7,21 -9,26 -20,51 -29,77 -3,8 -5,14 -6,20 -2,6 -3,10 -3,13 0,1 1,2 2,2 2,0 34,-14 35,-15 5,6 10,12 16,18 -15,15 -59,45 -81,45zm143 -342c0,1 -1,4 -2,7 -8,17 -18,41 -29,56 -3,2 -5,4 -6,4 -4,0 -10,-2 -16,-4 -11,-4 -23,-10 -32,-17 -4,-3 -6,-5 -6,-6 0,-5 1,-12 4,-20 6,-15 13,-30 22,-43 4,-6 7,-8 9,-8 5,0 10,1 16,4 12,5 24,12 34,20 4,3 6,6 6,7z"/>
 </g>
</svg>
