<?xml version="1.0" encoding="UTF-8" standalone="no"?>
<svg
   xmlns:dc="http://purl.org/dc/elements/1.1/"
   xmlns:cc="http://creativecommons.org/ns#"
   xmlns:rdf="http://www.w3.org/1999/02/22-rdf-syntax-ns#"
   xmlns:svg="http://www.w3.org/2000/svg"
   xmlns="http://www.w3.org/2000/svg"
   id="svg5882"
   viewBox="0 0 664.33582 608.33585"
   style="clip-rule:evenodd;fill-rule:evenodd;image-rendering:optimizeQuality;shape-rendering:geometricPrecision;text-rendering:geometricPrecision"
   version="1.1"
   height="6.0809169mm"
   width="6.6406918mm"
   xml:space="preserve"><metadata
   id="metadata5886"><rdf:RDF><cc:Work
       rdf:about=""><dc:format>image/svg+xml</dc:format><dc:type
         rdf:resource="http://purl.org/dc/dcmitype/StillImage" /><dc:title></dc:title></cc:Work></rdf:RDF></metadata>
 <defs id="defs5876"></defs>
 <g
   transform="translate(-91,-119)"
   id="Слой_x0020_1">
  <metadata
   id="CorelCorpID_0Corel-Layer" />
  <path
   style="fill:#565e6e"
   id="path5879"
   d="m 361,119 c 75,0 142,31 191,79 v 1 c 49,49 79,116 79,190 0,49 -12,94 -34,133 l 139,111 c 22,19 26,52 8,75 -18,22 -52,26 -74,8 L 528,602 c -46,36 -104,58 -167,58 -74,0 -141,-31 -190,-80 h -1 C 121,531 91,464 91,389 c 0,-74 30,-142 79,-191 49,-48 117,-79 191,-79 z m 117,154 c -30,-29 -71,-48 -117,-48 -45,0 -86,19 -116,48 -30,30 -48,71 -48,116 0,46 18,87 48,117 v 0 c 30,29 71,48 116,48 46,0 87,-19 117,-48 v 0 c 2,-3 5,-5 7,-8 l 1,-1 c 25,-29 40,-66 40,-108 0,-45 -19,-86 -48,-116 z"
   class="fil0" />
 </g>
</svg>