<?xml version="1.0" encoding="UTF-8" standalone="no"?>
<svg
   xmlns:dc="http://purl.org/dc/elements/1.1/"
   xmlns:cc="http://creativecommons.org/ns#"
   xmlns:rdf="http://www.w3.org/1999/02/22-rdf-syntax-ns#"
   xmlns:svg="http://www.w3.org/2000/svg"
   xmlns="http://www.w3.org/2000/svg"
   id="svg3240"
   viewBox="0 0 775.99999 775.99999"
   style="clip-rule:evenodd;fill-rule:evenodd;image-rendering:optimizeQuality;shape-rendering:geometricPrecision;text-rendering:geometricPrecision"
   version="1.1"
   height="7.7591753mm"
   width="7.7591753mm"
   xml:space="preserve"><metadata
   id="metadata3244"><rdf:RDF><cc:Work
       rdf:about=""><dc:format>image/svg+xml</dc:format><dc:type
         rdf:resource="http://purl.org/dc/dcmitype/StillImage" /><dc:title></dc:title></cc:Work></rdf:RDF></metadata>
 <defs
   id="defs3232">
 </defs>
 <g
   transform="translate(-176,-176)"
   id="Слой_x0020_1">
  <metadata
   id="CorelCorpID_0Corel-Layer" />
  <g
   id="g3237">
   <path
   style="fill:#3e4550"
   id="path3235"
   d="M 564,176 C 350,176 176,350 176,564 176,778 350,952 564,952 778,952 952,778 952,564 952,350 778,176 564,176 Z m 0,714 C 385,890 239,744 239,564 239,385 385,239 564,239 c 180,0 326,146 326,325 0,180 -146,326 -326,326 z m -6,-200 c -14,0 -25,4 -35,14 -10,10 -15,22 -15,36 0,13 5,25 15,35 10,10 21,15 35,15 14,0 26,-5 36,-15 9,-10 14,-22 14,-35 0,-14 -5,-26 -14,-36 -10,-10 -22,-14 -36,-14 z M 668,368 c -15,-10 -31,-17 -50,-22 -18,-4 -37,-7 -57,-7 -18,0 -36,3 -53,9 -17,7 -32,15 -46,25 -13,10 -23,22 -31,36 -8,14 -12,28 -12,43 0,12 4,21 12,28 8,6 17,9 27,9 10,0 18,-2 23,-6 6,-4 10,-9 14,-15 4,-6 7,-12 10,-19 3,-7 6,-13 11,-19 5,-6 11,-11 18,-15 8,-4 18,-6 31,-6 18,0 33,4 43,13 10,9 15,22 15,39 0,10 -2,19 -7,27 -6,7 -12,15 -20,22 -8,7 -17,14 -26,21 -9,6 -17,14 -25,21 -8,8 -15,16 -20,26 -5,9 -8,19 -8,32 0,9 3,19 10,27 6,9 16,13 29,13 10,0 18,-1 23,-5 5,-3 9,-7 12,-12 3,-5 5,-11 7,-17 2,-6 4,-12 8,-17 3,-5 8,-10 15,-14 7,-5 14,-11 22,-17 8,-5 17,-12 25,-19 9,-7 17,-15 24,-23 7,-9 13,-19 18,-29 4,-11 6,-23 6,-36 0,-22 -4,-40 -13,-55 -9,-16 -20,-28 -35,-38 z"
   class="fil0" />
  </g>
 </g>
</svg>