<?xml version="1.0" encoding="UTF-8" standalone="no"?>
<svg
   xmlns:dc="http://purl.org/dc/elements/1.1/"
   xmlns:cc="http://creativecommons.org/ns#"
   xmlns:rdf="http://www.w3.org/1999/02/22-rdf-syntax-ns#"
   xmlns:svg="http://www.w3.org/2000/svg"
   xmlns="http://www.w3.org/2000/svg"
   id="svg3877"
   viewBox="0 0 776.25003 776.25003"
   style="clip-rule:evenodd;fill-rule:evenodd;image-rendering:optimizeQuality;shape-rendering:geometricPrecision;text-rendering:geometricPrecision"
   version="1.1"
   height="7.7616754mm"
   width="7.7616754mm"
   xml:space="preserve"><metadata
   id="metadata3881"><rdf:RDF><cc:Work
       rdf:about=""><dc:format>image/svg+xml</dc:format><dc:type
         rdf:resource="http://purl.org/dc/dcmitype/StillImage" /><dc:title></dc:title></cc:Work></rdf:RDF></metadata>
 <defs
   id="defs3871">
 </defs>
    <g
   transform="translate(-176.25,-176.25)"
   id="Слой_x0020_1">
  <metadata
   id="CorelCorpID_0Corel-Layer" />
        <path
   style="fill:#3e4550"
   id="path3874"
   d="m 621,180 c 7,1 12,4 17,8 5,4 8,10 10,16 l 19,67 c 11,4 22,9 32,14 l 62,-35 c 2,-1 5,-2 7,-3 3,0 6,-1 8,-1 4,0 7,1 10,2 4,1 7,3 10,5 30,23 57,49 80,80 2,3 4,6 5,9 1,4 1,7 1,11 0,2 0,5 -1,8 0,2 -1,5 -2,7 l -35,62 c 5,10 10,21 14,32 l 67,19 c 6,2 12,5 16,10 4,5 6,10 7,17 6,37 6,76 0,113 -1,7 -3,12 -7,17 -4,5 -10,8 -16,10 l -67,19 c -4,11 -9,22 -14,32 l 35,62 c 1,2 2,5 2,7 1,3 1,6 1,8 0,4 0,7 -1,10 -1,4 -3,7 -5,10 -23,31 -49,57 -80,80 -3,2 -6,4 -10,5 -3,1 -6,1 -10,1 -2,0 -5,0 -8,-1 -2,0 -5,-1 -7,-2 l -62,-35 c -10,5 -21,10 -32,14 l -19,67 c -2,6 -5,12 -10,16 -5,4 -10,6 -17,7 -37,6 -76,6 -113,0 -7,-1 -12,-3 -17,-7 -5,-4 -8,-10 -10,-16 l -19,-67 c -11,-4 -22,-9 -32,-14 l -62,35 c -2,1 -5,2 -7,2 -3,1 -6,1 -8,1 -4,0 -7,0 -11,-1 -3,-1 -6,-3 -9,-5 -30,-23 -57,-50 -80,-80 -2,-3 -4,-6 -5,-10 -1,-3 -2,-6 -2,-10 0,-2 1,-5 1,-8 1,-2 2,-5 3,-7 l 35,-62 c -3,-5 -5,-10 -7,-16 -3,-5 -5,-10 -7,-16 l -67,-19 c -6,-2 -12,-5 -16,-10 -4,-5 -7,-10 -8,-17 -5,-37 -5,-76 0,-113 1,-7 4,-12 8,-17 4,-5 10,-8 16,-10 l 67,-19 c 4,-11 9,-22 14,-32 l -35,-62 c -1,-2 -2,-5 -3,-7 0,-3 -1,-6 -1,-8 0,-4 1,-7 2,-11 1,-3 3,-6 5,-9 23,-31 49,-57 80,-80 3,-2 6,-4 9,-5 4,-1 7,-2 11,-2 2,0 5,1 8,1 2,1 5,2 7,3 l 62,35 c 10,-5 21,-10 32,-14 l 19,-67 c 2,-6 5,-12 10,-16 5,-4 10,-7 17,-8 37,-5 76,-5 113,0 z m -29,63 c -20,-2 -35,-2 -55,0 l -18,61 c -1,6 -4,11 -8,14 -4,4 -9,7 -14,9 -18,5 -36,13 -53,22 v 0 c -2,1 -5,2 -8,3 -2,1 -5,1 -8,1 -2,0 -5,0 -8,-1 -2,-1 -5,-2 -7,-3 l -57,-31 -2,2 c -14,11 -23,20 -34,34 l -2,2 31,57 c 1,2 2,5 3,7 1,3 1,6 1,8 0,3 0,6 -1,8 -1,3 -2,6 -3,8 -9,17 -17,35 -22,53 -2,5 -5,10 -8,14 -4,4 -9,7 -15,8 l -61,18 c -2,20 -2,35 0,55 l 61,18 c 6,1 11,4 15,8 3,4 6,8 8,14 2,9 5,18 9,27 4,9 8,17 13,26 1,2 2,5 3,7 1,3 1,6 1,9 0,2 0,5 -1,8 -1,2 -2,5 -3,7 l -31,56 2,3 c 11,14 20,23 34,34 l 2,2 57,-31 c 2,-1 5,-2 7,-3 3,-1 6,-1 8,-1 3,0 6,0 8,1 3,1 6,2 8,3 17,9 35,17 53,22 5,2 10,5 14,8 4,4 7,9 8,14 l 18,62 c 20,2 35,2 55,0 l 18,-62 c 1,-5 4,-10 8,-14 4,-3 8,-6 14,-8 18,-5 36,-13 53,-22 2,-1 5,-2 7,-3 3,-1 6,-1 9,-1 2,0 5,0 8,1 2,1 5,2 7,3 l 56,31 3,-2 c 14,-11 23,-20 34,-34 l 2,-3 -31,-56 c -1,-2 -2,-5 -3,-7 -1,-3 -1,-6 -1,-8 0,-3 0,-6 1,-9 1,-2 2,-5 3,-7 9,-17 17,-35 22,-53 2,-6 5,-10 8,-14 4,-4 9,-7 14,-8 l 62,-18 c 2,-20 2,-35 0,-55 l -62,-18 c -5,-1 -10,-4 -14,-8 -3,-4 -6,-9 -8,-14 -5,-18 -13,-36 -22,-53 -1,-2 -2,-5 -3,-8 -1,-2 -1,-5 -1,-8 0,-2 0,-5 1,-8 1,-2 2,-5 3,-7 l 31,-57 -2,-2 c -11,-14 -20,-23 -34,-34 l -3,-2 -56,31 c -2,1 -5,2 -7,3 -3,1 -6,1 -8,1 -3,0 -6,0 -9,-1 -2,-1 -5,-2 -7,-3 v 0 c -17,-9 -35,-17 -53,-22 -6,-2 -10,-5 -14,-8 -4,-4 -7,-9 -8,-15 z M 434,434 c 33,-34 80,-54 130,-54 51,0 98,20 131,54 34,33 54,80 54,130 0,51 -20,98 -54,131 -33,34 -80,54 -131,54 -50,0 -97,-20 -130,-54 -34,-33 -54,-80 -54,-131 0,-50 20,-97 54,-130 z m 215,46 c -21,-22 -51,-35 -85,-35 -33,0 -63,13 -84,35 -22,21 -35,51 -35,84 0,34 13,64 35,85 21,22 51,35 84,35 34,0 64,-13 85,-35 22,-21 35,-51 35,-85 0,-33 -13,-63 -35,-84 z"
   class="fil0" />
 </g>
</svg>