<?xml version="1.0" encoding="UTF-8" standalone="no"?>
<svg
xmlns:dc="http://purl.org/dc/elements/1.1/"
xmlns:cc="http://creativecommons.org/ns#"
xmlns:rdf="http://www.w3.org/1999/02/22-rdf-syntax-ns#"
xmlns:svg="http://www.w3.org/2000/svg"
xmlns="http://www.w3.org/2000/svg"
id="svg3966"
viewBox="0 0 761.00001 761.00001"
style="clip-rule:evenodd;fill-rule:evenodd;image-rendering:optimizeQuality;shape-rendering:geometricPrecision;text-rendering:geometricPrecision"
version="1.1"
height="7.6091914mm"
width="7.6091914mm"
xml:space="preserve"><metadata
   id="metadata3970"><rdf:RDF><cc:Work
       rdf:about=""><dc:format>image/svg+xml</dc:format><dc:type
        rdf:resource="http://purl.org/dc/dcmitype/StillImage" /><dc:title></dc:title></cc:Work></rdf:RDF></metadata>
<defs id="defs3960"></defs>
<g
        transform="translate(-184,-184)"
        id="Слой_x0020_1">
  <metadata
          id="CorelCorpID_0Corel-Layer" />
 <path
         style="fill:#3e4550"
         id="path3963"
         d="m 880,851 c 7,-4 14,-6 22,-6 12,0 23,5 31,13 7,8 12,18 12,30 0,12 -5,23 -12,31 -8,8 -19,13 -31,13 -8,0 -15,-2 -22,-6 -3,-2 -6,-5 -9,-8 H 770 v 27 H 710 V 918 H 581 v 27 H 521 V 918 H 392 v 27 H 332 V 918 H 211 V 797 h -27 v -60 h 27 V 608 h -27 v -60 h 27 V 419 h -27 v -60 h 27 V 258 c -3,-3 -6,-6 -8,-9 -4,-7 -6,-14 -6,-22 0,-12 5,-23 13,-31 8,-8 19,-12 30,-12 12,0 23,4 31,12 8,8 13,19 13,31 0,8 -2,15 -6,22 -2,3 -5,6 -8,9 v 601 h 601 c 2,-3 6,-6 9,-8 z M 776,789 h 71 V 437 h -71 z m -141,0 h 71 V 331 h -71 z m -141,0 h 70 V 437 h -70 z m -141,0 h 70 V 542 h -70 z"
         class="fil0" />
 </g>
</svg>