<?xml version="1.0" encoding="UTF-8" standalone="no"?>
<svg
   xmlns:dc="http://purl.org/dc/elements/1.1/"
   xmlns:cc="http://creativecommons.org/ns#"
   xmlns:rdf="http://www.w3.org/1999/02/22-rdf-syntax-ns#"
   xmlns:svg="http://www.w3.org/2000/svg"
   xmlns="http://www.w3.org/2000/svg"
   id="svg4833"
   viewBox="0 0 775.99999 775.99999"
   style="clip-rule:evenodd;fill-rule:evenodd;image-rendering:optimizeQuality;shape-rendering:geometricPrecision;text-rendering:geometricPrecision"
   version="1.1"
   height="7.7591753mm"
   width="7.7591753mm"
   xml:space="preserve"><metadata
   id="metadata4837"><rdf:RDF><cc:Work
       rdf:about=""><dc:format>image/svg+xml</dc:format><dc:type
         rdf:resource="http://purl.org/dc/dcmitype/StillImage" /><dc:title></dc:title></cc:Work></rdf:RDF></metadata>
 <defs id="defs4827"></defs>
 <g
   transform="translate(-176,-176)"
   id="Слой_x0020_1">
  <metadata
   id="CorelCorpID_0Corel-Layer" />
  <path
   style="fill:#3e4550"
   id="path4830"
   d="m 247,882 h 106 v 70 H 176 V 776 h 71 z M 564,469 c -10,0 -19,1 -28,4 18,7 30,24 30,44 0,26 -21,47 -47,47 -21,0 -38,-13 -44,-32 -4,10 -6,21 -6,32 0,53 43,96 95,96 53,0 96,-43 96,-96 0,-52 -43,-95 -96,-95 z m 0,-107 c -55,0 -106,23 -143,59 -36,37 -59,88 -59,143 0,56 23,107 59,143 v 1 c 37,36 88,59 143,59 56,0 107,-23 143,-60 37,-36 60,-87 60,-143 0,-55 -23,-106 -59,-143 h -1 C 671,385 620,362 564,362 Z m -192,10 c 49,-50 117,-81 192,-81 76,0 144,31 193,81 50,49 80,117 80,192 0,76 -30,144 -80,193 -49,50 -117,80 -193,80 -75,0 -143,-30 -192,-80 -50,-49 -81,-117 -81,-193 0,-75 31,-143 81,-192 z M 247,247 H 353 V 176 H 176 v 177 h 71 z m 635,0 H 776 v -71 h 176 v 177 h -70 z m 0,635 H 776 v 70 H 952 V 776 h -70 z"
   class="fil0" />
 </g>
</svg>