<?xml version="1.0" encoding="UTF-8" standalone="no"?>
<svg
   xmlns:dc="http://purl.org/dc/elements/1.1/"
   xmlns:cc="http://creativecommons.org/ns#"
   xmlns:rdf="http://www.w3.org/1999/02/22-rdf-syntax-ns#"
   xmlns:svg="http://www.w3.org/2000/svg"
   xmlns="http://www.w3.org/2000/svg"
   id="svg5699"
   viewBox="0 0 787.00003 766.50001"
   style="clip-rule:evenodd;fill-rule:evenodd;image-rendering:optimizeQuality;shape-rendering:geometricPrecision;text-rendering:geometricPrecision"
   version="1.1"
   height="7.6641855mm"
   width="7.869164mm"
   xml:space="preserve"><metadata
   id="metadata5703"><rdf:RDF><cc:Work
       rdf:about=""><dc:format>image/svg+xml</dc:format><dc:type
         rdf:resource="http://purl.org/dc/dcmitype/StillImage" /><dc:title></dc:title></cc:Work></rdf:RDF></metadata>
 <defs
   id="defs5693">
 </defs>
 <g
   transform="translate(-171,-181)"
   id="Слой_x0020_1">
  <metadata
   id="CorelCorpID_0Corel-Layer" />
  <path
   style="fill:#3e4550"
   id="path5696"
   d="M 615,756 434,937 c -14,14 -36,14 -51,0 -14,-14 -14,-37 0,-51 L 564,705 c -25,-36 -40,-79 -40,-126 0,-120 97,-217 217,-217 120,0 217,97 217,217 0,120 -97,217 -217,217 -47,0 -90,-15 -126,-40 z m 28,-70 c 26,24 60,38 98,38 80,0 145,-65 145,-145 0,-80 -65,-144 -145,-144 -80,0 -145,64 -145,144 0,38 15,72 38,98 2,1 4,2 5,4 2,2 3,3 4,5 z M 171,362 h 288 v 73 H 171 Z m 0,181 h 179 v 72 H 171 Z m 0,181 h 179 v 72 H 171 Z m 0,-543 h 739 v 73 H 171 Z"
   class="fil0" />
 </g>
</svg>