<?xml version="1.0" encoding="UTF-8" standalone="no"?>
<svg
   xmlns:dc="http://purl.org/dc/elements/1.1/"
   xmlns:cc="http://creativecommons.org/ns#"
   xmlns:rdf="http://www.w3.org/1999/02/22-rdf-syntax-ns#"
   xmlns:svg="http://www.w3.org/2000/svg"
   xmlns="http://www.w3.org/2000/svg"
   id="svg5800"
   viewBox="0 0 775.99999 775.99999"
   style="clip-rule:evenodd;fill-rule:evenodd;image-rendering:optimizeQuality;shape-rendering:geometricPrecision;text-rendering:geometricPrecision"
   version="1.1"
   height="7.7591753mm"
   width="7.7591753mm"
   xml:space="preserve"><metadata
   id="metadata5804"><rdf:RDF><cc:Work
       rdf:about=""><dc:format>image/svg+xml</dc:format><dc:type
         rdf:resource="http://purl.org/dc/dcmitype/StillImage" /><dc:title></dc:title></cc:Work></rdf:RDF></metadata>
 <defs
   id="defs5794">

 </defs>
 <g
   transform="translate(-176,-176)"
   id="Слой_x0020_1">
  <metadata
   id="CorelCorpID_0Corel-Layer" />
  <path
   style="fill:#3e4550"
   id="path5797"
   d="M 882,536 H 542 L 503,479 H 392 l -6,8 v 395 h 496 z m -371,135 88,36 V 600 h 70 v 106 l 89,-36 v 71 L 634,811 511,741 Z M 742,304 H 403 L 363,247 H 253 l -6,8 v 183 265 h -2 -46 c -12,0 -23,-12 -23,-26 V 234 l 30,-44 c 5,-7 17,-14 25,-14 h 154 c 8,0 19,7 25,14 l 30,44 h 350 c 13,0 23,11 23,25 V 395 H 742 Z M 929,466 H 579 l -30,-44 c -5,-7 -16,-13 -25,-13 H 371 c -9,0 -20,6 -25,13 l -30,44 v 461 c 0,14 10,25 23,25 h 590 c 13,0 23,-11 23,-25 V 491 c 0,-14 -10,-25 -23,-25 z"
   class="fil0" />
 </g>
</svg>