<?xml version="1.0" encoding="UTF-8"?>
<!DOCTYPE svg PUBLIC "-//W3C//DTD SVG 1.1//EN" "http://www.w3.org/Graphics/SVG/1.1/DTD/svg11.dtd">
<!-- Creator: CorelDRAW X8 -->
<svg xmlns="http://www.w3.org/2000/svg" xml:space="preserve" width="11.2888mm" height="11.2888mm" version="1.1" style="shape-rendering:geometricPrecision; text-rendering:geometricPrecision; image-rendering:optimizeQuality; fill-rule:evenodd; clip-rule:evenodd"
viewBox="0 0 1129 1129"
 xmlns:xlink="http://www.w3.org/1999/xlink">
 <defs>
  <style type="text/css">
   <![CDATA[
    .fil1 {fill:#603684}
    .fil0 {fill:#E6E6E6}
   ]]>
  </style>
 </defs>
 <g id="Слой_x0020_1">
  <metadata id="CorelCorpID_0Corel-Layer"/>
  <path class="fil0" d="M564 141l0 0c233,0 424,191 424,423l0 0c0,233 -191,424 -424,424l0 0c-232,0 -423,-191 -423,-424l0 0c0,-232 191,-423 423,-423z"/>
  <path class="fil1" d="M564 353l0 0c117,0 212,95 212,211l0 0c0,117 -95,212 -212,212l0 0c-116,0 -211,-95 -211,-212l0 0c0,-116 95,-211 211,-211z"/>
 </g>
</svg>
