<?xml version="1.0" encoding="UTF-8" standalone="no"?>
<svg
   xmlns:dc="http://purl.org/dc/elements/1.1/"
   xmlns:cc="http://creativecommons.org/ns#"
   xmlns:rdf="http://www.w3.org/1999/02/22-rdf-syntax-ns#"
   xmlns:svg="http://www.w3.org/2000/svg"
   xmlns="http://www.w3.org/2000/svg"
   id="svg12"
   viewBox="0 0 847.00001 847.00001"
   style="clip-rule:evenodd;fill-rule:evenodd;image-rendering:optimizeQuality;shape-rendering:geometricPrecision;text-rendering:geometricPrecision"
   version="1.1"
   height="8.4691mm"
   width="8.4691mm"
   xml:space="preserve"><metadata
   id="metadata16"><rdf:RDF><cc:Work
       rdf:about=""><dc:format>image/svg+xml</dc:format><dc:type
         rdf:resource="http://purl.org/dc/dcmitype/StillImage" /><dc:title></dc:title></cc:Work></rdf:RDF></metadata>
 <defs
   id="defs4">
 </defs>
 <g
   transform="translate(-141,-141)"
   id="Слой_x0020_1">
  <metadata
   id="CorelCorpID_0Corel-Layer" />
  <path
   style="fill:#603684"
   id="path7"
   d="m 282,141 h 565 c 77,0 141,64 141,141 v 565 c 0,77 -64,141 -141,141 H 282 C 205,988 141,924 141,847 V 282 c 0,-77 64,-141 141,-141 z m 565,71 H 282 c -19,0 -37,8 -50,20 v 0 c -12,13 -20,31 -20,50 v 565 c 0,19 8,37 20,49 v 1 c 13,12 31,20 50,20 h 565 c 19,0 37,-8 49,-20 l 1,-1 c 12,-12 20,-30 20,-49 V 282 c 0,-19 -8,-37 -20,-50 h -1 c -12,-12 -30,-20 -49,-20 z"
   class="fil0" />
  <polygon
   style="fill:#603684;fill-rule:nonzero"
   id="polygon9"
   points="700,375 781,443 520,754 348,548 429,480 520,589 "
   class="fil1" />
 </g>
</svg>