<?xml version="1.0" encoding="UTF-8"?>
<!DOCTYPE svg PUBLIC "-//W3C//DTD SVG 1.1//EN" "http://www.w3.org/Graphics/SVG/1.1/DTD/svg11.dtd">
<!-- Creator: CorelDRAW X8 -->
<svg xmlns="http://www.w3.org/2000/svg" xml:space="preserve" width="11.2888mm" height="11.2888mm" version="1.1" style="shape-rendering:geometricPrecision; text-rendering:geometricPrecision; image-rendering:optimizeQuality; fill-rule:evenodd; clip-rule:evenodd"
viewBox="0 0 1129 1129"
 xmlns:xlink="http://www.w3.org/1999/xlink">
 <defs>
  <style type="text/css">
   <![CDATA[
    .fil0 {fill:#3E4550}
   ]]>
  </style>
 </defs>
 <g id="Слой_x0020_1">
  <metadata id="CorelCorpID_0Corel-Layer"/>
  <path class="fil0" d="M771 545c-1,-55 -8,-106 -20,-151 30,-16 58,-36 84,-60 49,57 80,130 84,211l-148 0zm64 250c-26,-24 -54,-44 -83,-60 11,-46 18,-97 19,-151l148 0c-4,80 -35,154 -84,211zm-625 -211l148 0c1,54 8,105 19,151 -29,16 -57,36 -83,60 -49,-57 -80,-131 -84,-211zm84 -250c26,24 54,44 83,60 -11,45 -18,96 -19,151l-148 0c4,-81 35,-154 84,-211zm251 66c-41,-2 -82,-11 -120,-28 26,-86 70,-147 120,-160l0 188zm0 40l0 105 -147 0c1,-48 7,-93 16,-134 42,17 86,27 131,29zm0 144l0 105c-46,2 -90,12 -131,29 -9,-41 -15,-86 -16,-134l147 0zm0 144l0 189c-50,-13 -94,-74 -120,-161 37,-16 78,-25 120,-28zm39 0c42,3 83,12 120,28 -26,87 -70,148 -120,161l0 -189zm0 -39l0 -105 147 0c-1,48 -7,93 -16,134 -41,-17 -85,-27 -131,-29zm0 -144l0 -105c45,-2 89,-12 131,-29 9,41 15,86 16,134l-147 0zm0 -145l0 -188c50,13 94,74 120,160 -38,17 -79,26 -120,28zm88 -174c51,16 97,43 135,79 -20,20 -43,36 -67,49 -17,-52 -40,-96 -68,-128zm-284 128c-23,-13 -46,-29 -66,-49 38,-36 84,-63 135,-79 -28,32 -52,76 -69,128zm0 420c17,53 41,97 69,129 -51,-16 -97,-44 -135,-79 20,-20 43,-36 66,-50zm352 0c24,14 47,30 67,50 -38,35 -84,63 -135,79 28,-32 51,-76 68,-129z"/>
 </g>
</svg>
