<?xml version="1.0" encoding="UTF-8"?>
<!DOCTYPE svg PUBLIC "-//W3C//DTD SVG 1.1//EN" "http://www.w3.org/Graphics/SVG/1.1/DTD/svg11.dtd">
<!-- Creator: CorelDRAW X8 -->
<svg xmlns="http://www.w3.org/2000/svg" xml:space="preserve" width="11.2888mm" height="11.2888mm" version="1.1" style="shape-rendering:geometricPrecision; text-rendering:geometricPrecision; image-rendering:optimizeQuality; fill-rule:evenodd; clip-rule:evenodd"
viewBox="0 0 1129 1129"
 xmlns:xlink="http://www.w3.org/1999/xlink">
 <defs>
  <style type="text/css">
   <![CDATA[
    .fil0 {fill:#3E4550}
   ]]>
  </style>
 </defs>
 <g id="Слой_x0020_1">
  <metadata id="CorelCorpID_0Corel-Layer"/>
  <path class="fil0" d="M689 350c0,-35 -14,-67 -37,-89l0 -1c-22,-22 -54,-36 -89,-36 -35,0 -66,14 -89,37 -23,22 -37,54 -37,89 0,35 14,66 37,89l0 0c23,23 54,37 89,37 35,0 67,-14 89,-37l1 0c22,-23 36,-54 36,-89zm175 555c-34,-94 -87,-161 -147,-202 -48,-32 -100,-49 -153,-49 -52,0 -105,17 -152,49 -61,41 -113,108 -148,202l600 0zm81 20c-132,-455 -629,-454 -761,0 -8,27 27,51 71,51l619 0c45,0 80,-24 71,-51zm-185 -575c0,-109 -88,-197 -197,-197 -108,0 -196,88 -196,197 0,108 88,196 196,196 109,0 197,-88 197,-196z"/>
 </g>
</svg>
