<?xml version="1.0" encoding="UTF-8"?>
<!DOCTYPE svg PUBLIC "-//W3C//DTD SVG 1.1//EN" "http://www.w3.org/Graphics/SVG/1.1/DTD/svg11.dtd">
<!-- Creator: CorelDRAW X8 -->
<svg xmlns="http://www.w3.org/2000/svg" xml:space="preserve" width="45.861mm" height="45.861mm" version="1.1" style="shape-rendering:geometricPrecision; text-rendering:geometricPrecision; image-rendering:optimizeQuality; fill-rule:evenodd; clip-rule:evenodd"
viewBox="0 0 4586 4586"
 xmlns:xlink="http://www.w3.org/1999/xlink">
 <defs>
  <style type="text/css">
   <![CDATA[
    .fil0 {fill:#DEDFE6;fill-rule:nonzero}
    .fil2 {fill:url(#id0)}
    .fil1 {fill:url(#id1)}
   ]]>
  </style>
  <linearGradient id="id0" gradientUnits="userSpaceOnUse" x1="2299.29" y1="2293.63" x2="2270.42" y2="1581.44">
   <stop offset="0" style="stop-opacity:1; stop-color:#7ABE41"/>
   <stop offset="1" style="stop-opacity:1; stop-color:#95CD36"/>
  </linearGradient>
  <linearGradient id="id1" gradientUnits="userSpaceOnUse" x1="1965.28" y1="3485.7" x2="2604.42" y2="1100.4">
   <stop offset="0" style="stop-opacity:1; stop-color:#2C448F"/>
   <stop offset="1" style="stop-opacity:1; stop-color:#603684"/>
  </linearGradient>
 </defs>
 <g id="Слой_x0020_1">
  <metadata id="CorelCorpID_0Corel-Layer"/>
  <g id="_3169494050560">
   <path class="fil0" d="M2293 166c587,0 1119,238 1504,623 385,385 623,917 623,1504 0,587 -238,1119 -623,1504 -385,385 -917,623 -1504,623 -587,0 -1119,-238 -1504,-623 -385,-385 -623,-917 -623,-1504 0,-587 238,-1119 623,-1504 385,-385 917,-623 1504,-623zm1490 637c-382,-381 -908,-617 -1490,-617 -582,0 -1108,236 -1490,617 -381,382 -617,908 -617,1490 0,582 236,1108 617,1490 382,381 908,617 1490,617 582,0 1108,-236 1490,-617 381,-382 617,-908 617,-1490 0,-582 -236,-1108 -617,-1490z"/>
   <path class="fil1" d="M2285 1058c-681,0 -1235,554 -1235,1235 0,453 245,852 611,1064 183,109 396,171 624,171 228,0 441,-62 624,-171 181,-106 334,-259 440,-440 109,-183 171,-396 171,-624 0,-681 -554,-1235 -1235,-1235zm532 762c-8,-10 -19,-17 -32,-17 -13,-2 -25,3 -36,11l-462 375c0,0 0,0 -2,0 -87,0 -156,70 -156,155 0,85 71,156 156,156 87,0 155,-71 155,-156 0,0 0,0 0,-2l377 -462c15,-17 15,-43 0,-60zm422 513c0,5 0,7 0,11l-703 0 -30 0c0,121 -100,222 -221,222 -121,0 -222,-101 -222,-222l-732 0c0,-4 0,-6 0,-11 0,-12 0,-27 0,-40 0,-528 428,-956 956,-956 528,0 956,428 956,956 -2,13 -4,28 -4,40z"/>
   <path class="fil2" d="M2721 1723c-10,4 -21,10 -30,19l-146 119c-47,-38 -103,-68 -162,-87 -68,-22 -145,-30 -219,-24 -156,13 -309,96 -413,230 -52,66 -92,145 -113,232 -7,21 -9,43 -13,66 0,4 -2,11 -2,15l-49 0c4,-394 323,-711 719,-711 160,0 307,53 428,141zm275 434l-273 55c0,-21 -2,-42 -6,-64l170 -210c5,-7 11,-13 13,-20 47,73 79,152 96,239z"/>
  </g>
 </g>
</svg>
