<?xml version="1.0" encoding="UTF-8"?>
<!DOCTYPE svg PUBLIC "-//W3C//DTD SVG 1.1//EN" "http://www.w3.org/Graphics/SVG/1.1/DTD/svg11.dtd">
<!-- Creator: CorelDRAW X8 -->
<svg xmlns="http://www.w3.org/2000/svg" xml:space="preserve" width="7.0554mm" height="7.0554mm" version="1.1" style="shape-rendering:geometricPrecision; text-rendering:geometricPrecision; image-rendering:optimizeQuality; fill-rule:evenodd; clip-rule:evenodd"
viewBox="0 0 706 706"
 xmlns:xlink="http://www.w3.org/1999/xlink">
 <defs>
  <style type="text/css">
   <![CDATA[
    .fil0 {fill:#3E4550}
   ]]>
  </style>
 </defs>
 <g id="Слой_x0020_1">
  <metadata id="CorelCorpID_0Corel-Layer"/>
  <path class="fil0" d="M353 254c-11,0 -21,2 -30,5 19,6 32,24 32,45 0,27 -22,49 -49,49 -21,0 -40,-14 -46,-34 -4,11 -6,22 -6,34 0,54 44,99 99,99 54,0 99,-45 99,-99 0,-55 -45,-99 -99,-99zm0 -111c-58,0 -110,24 -148,62 -38,38 -62,90 -62,148 0,57 24,110 62,148l0 0c38,38 90,61 148,61 57,0 110,-23 148,-61 38,-38 61,-91 61,-148 0,-58 -23,-110 -61,-148l0 0c-38,-38 -91,-62 -148,-62zm-200 10c51,-51 122,-82 200,-82 78,0 148,31 199,82 51,52 83,122 83,200 0,78 -32,148 -83,199 -51,51 -121,83 -199,83 -78,0 -148,-32 -200,-83 -51,-51 -82,-121 -82,-199 0,-78 31,-149 82,-200z"/>
 </g>
</svg>
