<?xml version="1.0" encoding="UTF-8"?>
<!DOCTYPE svg PUBLIC "-//W3C//DTD SVG 1.1//EN" "http://www.w3.org/Graphics/SVG/1.1/DTD/svg11.dtd">
<!-- Creator: CorelDRAW X8 -->
<svg xmlns="http://www.w3.org/2000/svg" xml:space="preserve" width="7.0554mm" height="7.0554mm" version="1.1" style="shape-rendering:geometricPrecision; text-rendering:geometricPrecision; image-rendering:optimizeQuality; fill-rule:evenodd; clip-rule:evenodd"
viewBox="0 0 706 706"
 xmlns:xlink="http://www.w3.org/1999/xlink">
 <defs>
  <style type="text/css">
   <![CDATA[
    .fil0 {fill:#3E4550}
   ]]>
  </style>
 </defs>
 <g id="Слой_x0020_1">
  <metadata id="CorelCorpID_0Corel-Layer"/>
  <path class="fil0" d="M635 236l-51 -51 -160 159 -63 -63 159 -160 -50 -50 165 0 0 165zm0 83l0 189c0,71 -56,127 -127,127l-311 0c-71,0 -126,-56 -126,-127l0 -310c0,-71 55,-127 126,-127l190 0 0 66 -190 0c-35,0 -61,25 -61,61l0 310c0,36 26,61 61,61l311 0c35,0 61,-25 61,-61l0 -189 66 0z"/>
 </g>
</svg>
