<?xml version="1.0" encoding="UTF-8"?>
<!DOCTYPE svg PUBLIC "-//W3C//DTD SVG 1.1//EN" "http://www.w3.org/Graphics/SVG/1.1/DTD/svg11.dtd">
<!-- Creator: CorelDRAW X8 -->
<svg xmlns="http://www.w3.org/2000/svg" xml:space="preserve" width="12.6998mm" height="12.6998mm" version="1.1" style="shape-rendering:geometricPrecision; text-rendering:geometricPrecision; image-rendering:optimizeQuality; fill-rule:evenodd; clip-rule:evenodd"
viewBox="0 0 1270 1270"
 xmlns:xlink="http://www.w3.org/1999/xlink">
 <defs>
  <style type="text/css">
   <![CDATA[
    .fil0 {fill:gray}
   ]]>
  </style>
 </defs>
 <g id="Слой_x0020_1">
  <metadata id="CorelCorpID_0Corel-Layer"/>
  <path class="fil0" d="M758 300l212 151 63 -90c21,-31 -9,-52 -9,-52l-151 -108c0,0 -31,-21 -52,9l-63 90zm-529 141l71 0 0 -141 -71 0 0 141zm71 71l-71 0 0 141 71 0 0 -141zm0 211l-71 0 0 141 71 0 0 -141zm0 212l-71 0 0 141 71 0 0 -141zm71 -86l0 227 212 -76 -212 -151zm66 -29l151 108c17,12 40,8 52,-9l274 -389c12,-17 8,-40 -9,-52l-151 -108c-17,-12 -40,-8 -52,9l-274 389c-12,17 -8,40 9,52zm67 -38l236 -335 97 69 -235 335 -98 -69z"/>
 </g>
</svg>
