<?xml version="1.0" encoding="UTF-8" standalone="no"?>
<svg
   xmlns:dc="http://purl.org/dc/elements/1.1/"
   xmlns:cc="http://creativecommons.org/ns#"
   xmlns:rdf="http://www.w3.org/1999/02/22-rdf-syntax-ns#"
   xmlns:svg="http://www.w3.org/2000/svg"
   xmlns="http://www.w3.org/2000/svg"
   id="svg10"
   viewBox="0 0 881.99997 881.99997"
   style="clip-rule:evenodd;fill-rule:evenodd;image-rendering:optimizeQuality;shape-rendering:geometricPrecision;text-rendering:geometricPrecision"
   version="1.1"
   height="8.8198605mm"
   width="8.8198605mm"
   xml:space="preserve"><metadata
   id="metadata14"><rdf:RDF><cc:Work
       rdf:about=""><dc:format>image/svg+xml</dc:format><dc:type
         rdf:resource="http://purl.org/dc/dcmitype/StillImage" /><dc:title></dc:title></cc:Work></rdf:RDF></metadata>
 <defs
   id="defs4">
 </defs>
 <g
   transform="translate(-194,-194)"
   id="Слой_x0020_1">
  <metadata
   id="CorelCorpID_0Corel-Layer" />
  <path
   style="fill:#e35a31"
   id="path7"
   d="m 635,194 c 244,0 441,197 441,441 0,244 -197,441 -441,441 C 391,1076 194,879 194,635 194,391 391,194 635,194 Z M 785,435 635,585 485,435 435,485 585,635 435,785 485,835 635,685 785,835 835,785 685,635 835,485 Z M 897,373 C 830,306 737,265 635,265 533,265 440,306 373,373 306,440 265,533 265,635 c 0,102 41,195 108,262 67,67 160,108 262,108 102,0 195,-41 262,-108 67,-67 108,-160 108,-262 0,-102 -41,-195 -108,-262 z"
   class="fil0" />
 </g>
</svg>