<?xml version="1.0" encoding="UTF-8"?>
<!DOCTYPE svg PUBLIC "-//W3C//DTD SVG 1.1//EN" "http://www.w3.org/Graphics/SVG/1.1/DTD/svg11.dtd">
<!-- Creator: CorelDRAW X8 -->
<svg xmlns="http://www.w3.org/2000/svg" xml:space="preserve" width="12.6998mm" height="12.6998mm" version="1.1" style="shape-rendering:geometricPrecision; text-rendering:geometricPrecision; image-rendering:optimizeQuality; fill-rule:evenodd; clip-rule:evenodd"
viewBox="0 0 1270 1270"
 xmlns:xlink="http://www.w3.org/1999/xlink">
 <defs>
  <style type="text/css">
   <![CDATA[
    .fil0 {fill:#603684}
   ]]>
  </style>
 </defs>
 <g id="Слой_x0020_1">
  <metadata id="CorelCorpID_0Corel-Layer"/>
  <path class="fil0" d="M722 759c-10,-14 -21,-24 -33,-32 -17,-12 -35,-17 -54,-17l0 -1c-18,0 -37,6 -54,18 -12,8 -23,18 -32,32l173 0zm274 -175l-85 -27c-6,-20 -15,-41 -26,-62l42 -80c2,-5 1,-10 -2,-14l-57 -57c-4,-3 -9,-4 -14,-2l-80 42c-19,-12 -40,-20 -62,-26l-27 -85c-1,-5 -6,-8 -11,-8l-81 0c-5,0 -9,3 -12,8l-26 85c-22,6 -42,15 -62,26l-78 -42c-5,-2 -11,-1 -14,2l-57 57c-3,4 -4,9 -2,14l42 80c-12,21 -20,40 -26,62l-85 27c-5,1 -8,6 -8,12l0 81c0,4 3,9 8,11l85 27c6,21 15,42 26,62l-42 78c-2,5 -1,10 2,14l57 57c3,3 9,4 14,2l80 -42c19,11 40,20 61,26l26 85c2,5 6,8 12,8l81 0c4,0 9,-3 11,-8l27 -85c21,-6 42,-15 62,-26l80 42c5,2 11,1 14,-2l57 -57c3,-4 4,-9 2,-14l-42 -80c12,-21 20,-40 26,-62l85 -27c5,-1 8,-6 8,-12l0 -81c-1,-3 -4,-8 -9,-9zm-31 -83l52 16c14,4 26,12 34,20l0 1c10,9 17,22 21,33l4 11 0 92c0,18 -6,34 -15,48 -11,15 -26,27 -45,32l-49 15 -2 5 26 48 0 2c8,16 10,33 7,49l0 1c-2,17 -10,33 -22,45l-1 0 -56 56 0 0c-12,13 -28,21 -45,23l0 0c-16,3 -34,1 -50,-7l-50 -26 -4 1 -18 57 -3 6c-6,13 -16,24 -27,32l0 0c-14,9 -30,15 -47,15l-81 0c-18,0 -34,-6 -48,-15l0 0c-15,-11 -27,-27 -31,-45l-16 -50 -3 -1 -50 26c-16,8 -34,10 -50,7l0 0c-17,-2 -33,-11 -45,-23l0 0 -56 -56 -1 0c-12,-12 -20,-29 -22,-45l0 -1c-3,-16 -1,-33 7,-49l1 -2 25 -47 -1 -3 -57 -18 -6 -3c-13,-6 -24,-16 -32,-28 -9,-13 -15,-29 -15,-46l0 -81c0,-18 6,-34 15,-48 11,-15 26,-27 45,-32l49 -15 2 -5 -26 -48 0 -2c-8,-16 -10,-33 -7,-50l0 0c2,-17 10,-33 22,-45l1 0 56 -56 0 0c12,-12 28,-21 45,-23l0 0c16,-3 34,-1 50,7l2 1 47 25 3 -1 18 -57 2 -6c7,-13 17,-24 28,-32 14,-9 30,-15 47,-15l81 0c17,0 34,6 48,15l0 0c15,12 27,28 32,47l14 47 5 2 50 -26c16,-8 33,-10 50,-7l0 0c17,2 33,10 45,23l0 0 56 56 0 0c13,12 20,28 23,45l0 0c3,17 1,34 -7,50l-1 2 -25 49 1 4zm-305 24c0,-7 -3,-13 -8,-18l0 0c-4,-4 -10,-7 -17,-7 -7,0 -14,3 -18,7l0 0c-5,5 -7,11 -7,18 0,7 2,13 7,18l0 0c4,4 11,7 18,7 7,0 13,-3 17,-7l0 0c5,-5 8,-11 8,-18zm70 0c0,-53 -43,-96 -95,-96 -53,0 -96,43 -96,96 0,53 43,96 96,96 52,0 95,-43 95,-96zm90 280c-64,-221 -306,-221 -370,0 -4,13 13,24 35,24l300 0c23,0 39,-11 35,-24z"/>
 </g>
</svg>
