<?xml version="1.0" encoding="UTF-8" standalone="no"?>
<svg
   xmlns:dc="http://purl.org/dc/elements/1.1/"
   xmlns:cc="http://creativecommons.org/ns#"
   xmlns:rdf="http://www.w3.org/1999/02/22-rdf-syntax-ns#"
   xmlns:svg="http://www.w3.org/2000/svg"
   xmlns="http://www.w3.org/2000/svg"
   id="svg86"
   viewBox="0 0 881.99997 881.99997"
   style="clip-rule:evenodd;fill-rule:evenodd;image-rendering:optimizeQuality;shape-rendering:geometricPrecision;text-rendering:geometricPrecision"
   version="1.1"
   height="8.8198605mm"
   width="8.8198605mm"
   xml:space="preserve"><metadata
   id="metadata90"><rdf:RDF><cc:Work
       rdf:about=""><dc:format>image/svg+xml</dc:format><dc:type
         rdf:resource="http://purl.org/dc/dcmitype/StillImage" /><dc:title></dc:title></cc:Work></rdf:RDF></metadata>
 <defs
   id="defs80">
  <style
   id="style78"
   type="text/css">
   <![CDATA[
    .fil0 {fill:#603684}
   ]]>
  </style>
 </defs>
 <g
   transform="translate(-194,-194)"
   id="Слой_x0020_1">
  <metadata
   id="CorelCorpID_0Corel-Layer" />
  <path
   style="fill:#603684"
   id="path83"
   d="m 722,759 c -10,-14 -21,-24 -33,-32 -17,-12 -35,-17 -54,-17 v -1 c -18,0 -37,6 -54,18 -12,8 -23,18 -32,32 z M 996,584 911,557 c -6,-20 -15,-41 -26,-62 l 42,-80 c 2,-5 1,-10 -2,-14 l -57,-57 c -4,-3 -9,-4 -14,-2 l -80,42 c -19,-12 -40,-20 -62,-26 l -27,-85 c -1,-5 -6,-8 -11,-8 h -81 c -5,0 -9,3 -12,8 l -26,85 c -22,6 -42,15 -62,26 l -78,-42 c -5,-2 -11,-1 -14,2 l -57,57 c -3,4 -4,9 -2,14 l 42,80 c -12,21 -20,40 -26,62 l -85,27 c -5,1 -8,6 -8,12 v 81 c 0,4 3,9 8,11 l 85,27 c 6,21 15,42 26,62 l -42,78 c -2,5 -1,10 2,14 l 57,57 c 3,3 9,4 14,2 l 80,-42 c 19,11 40,20 61,26 l 26,85 c 2,5 6,8 12,8 h 81 c 4,0 9,-3 11,-8 l 27,-85 c 21,-6 42,-15 62,-26 l 80,42 c 5,2 11,1 14,-2 l 57,-57 c 3,-4 4,-9 2,-14 l -42,-80 c 12,-21 20,-40 26,-62 l 85,-27 c 5,-1 8,-6 8,-12 v -81 c -1,-3 -4,-8 -9,-9 z m -31,-83 52,16 c 14,4 26,12 34,20 v 1 c 10,9 17,22 21,33 l 4,11 v 92 c 0,18 -6,34 -15,48 -11,15 -26,27 -45,32 l -49,15 -2,5 26,48 v 2 c 8,16 10,33 7,49 v 1 c -2,17 -10,33 -22,45 h -1 l -56,56 v 0 c -12,13 -28,21 -45,23 v 0 c -16,3 -34,1 -50,-7 l -50,-26 -4,1 -18,57 -3,6 c -6,13 -16,24 -27,32 v 0 c -14,9 -30,15 -47,15 h -81 c -18,0 -34,-6 -48,-15 v 0 c -15,-11 -27,-27 -31,-45 l -16,-50 -3,-1 -50,26 c -16,8 -34,10 -50,7 v 0 c -17,-2 -33,-11 -45,-23 v 0 l -56,-56 h -1 c -12,-12 -20,-29 -22,-45 v -1 c -3,-16 -1,-33 7,-49 l 1,-2 25,-47 -1,-3 -57,-18 -6,-3 c -13,-6 -24,-16 -32,-28 -9,-13 -15,-29 -15,-46 v -81 c 0,-18 6,-34 15,-48 11,-15 26,-27 45,-32 l 49,-15 2,-5 -26,-48 v -2 c -8,-16 -10,-33 -7,-50 v 0 c 2,-17 10,-33 22,-45 h 1 l 56,-56 v 0 c 12,-12 28,-21 45,-23 v 0 c 16,-3 34,-1 50,7 l 2,1 47,25 3,-1 18,-57 2,-6 c 7,-13 17,-24 28,-32 14,-9 30,-15 47,-15 h 81 c 17,0 34,6 48,15 v 0 c 15,12 27,28 32,47 l 14,47 5,2 50,-26 c 16,-8 33,-10 50,-7 v 0 c 17,2 33,10 45,23 v 0 l 56,56 v 0 c 13,12 20,28 23,45 v 0 c 3,17 1,34 -7,50 l -1,2 -25,49 z m -305,24 c 0,-7 -3,-13 -8,-18 v 0 c -4,-4 -10,-7 -17,-7 -7,0 -14,3 -18,7 v 0 c -5,5 -7,11 -7,18 0,7 2,13 7,18 v 0 c 4,4 11,7 18,7 7,0 13,-3 17,-7 v 0 c 5,-5 8,-11 8,-18 z m 70,0 c 0,-53 -43,-96 -95,-96 -53,0 -96,43 -96,96 0,53 43,96 96,96 52,0 95,-43 95,-96 z m 90,280 c -64,-221 -306,-221 -370,0 -4,13 13,24 35,24 h 300 c 23,0 39,-11 35,-24 z"
   class="fil0" />
 </g>
</svg>