<?xml version="1.0" encoding="UTF-8"?>
<!DOCTYPE svg PUBLIC "-//W3C//DTD SVG 1.1//EN" "http://www.w3.org/Graphics/SVG/1.1/DTD/svg11.dtd">
<!-- Creator: CorelDRAW X8 -->
<svg xmlns="http://www.w3.org/2000/svg" xml:space="preserve" width="12.6998mm" height="12.6998mm" version="1.1" style="shape-rendering:geometricPrecision; text-rendering:geometricPrecision; image-rendering:optimizeQuality; fill-rule:evenodd; clip-rule:evenodd"
viewBox="0 0 1270 1270"
 xmlns:xlink="http://www.w3.org/1999/xlink">
 <defs>
  <style type="text/css">
   <![CDATA[
    .fil0 {fill:#E35930}
   ]]>
  </style>
 </defs>
 <g id="Слой_x0020_1">
  <metadata id="CorelCorpID_0Corel-Layer"/>
  <path class="fil0" d="M635 194c244,0 441,197 441,441 0,244 -197,441 -441,441 -244,0 -441,-197 -441,-441 0,-244 197,-441 441,-441zm150 241l-150 150 -150 -150 -50 50 150 150 -150 150 50 50 150 -150 150 150 50 -50 -150 -150 150 -150 -50 -50zm112 -62c-67,-67 -160,-108 -262,-108 -102,0 -195,41 -262,108 -67,67 -108,160 -108,262 0,102 41,195 108,262 67,67 160,108 262,108 102,0 195,-41 262,-108 67,-67 108,-160 108,-262 0,-102 -41,-195 -108,-262z"/>
 </g>
</svg>
