<?xml version="1.0" encoding="UTF-8"?>
<!DOCTYPE svg PUBLIC "-//W3C//DTD SVG 1.1//EN" "http://www.w3.org/Graphics/SVG/1.1/DTD/svg11.dtd">
<!-- Creator: CorelDRAW X8 -->
<svg xmlns="http://www.w3.org/2000/svg" xml:space="preserve" width="12.6998mm" height="12.6998mm" version="1.1" style="shape-rendering:geometricPrecision; text-rendering:geometricPrecision; image-rendering:optimizeQuality; fill-rule:evenodd; clip-rule:evenodd"
viewBox="0 0 1270 1270"
 xmlns:xlink="http://www.w3.org/1999/xlink">
 <defs>
  <style type="text/css">
   <![CDATA[
    .fil0 {fill:#3E4550}
   ]]>
  </style>
 </defs>
 <g id="Слой_x0020_1">
  <metadata id="CorelCorpID_0Corel-Layer"/>
  <path class="fil0" d="M663 582l-338 0c-24,0 -43,22 -43,51l0 321c0,28 19,51 43,51l338 0c23,0 43,-23 43,-51l0 -320c1,-29 -18,-52 -43,-52zm-127 243l0 54c0,22 -18,42 -42,42 -23,0 -42,-18 -42,-42l0 -54c-26,-14 -43,-41 -43,-72 0,-47 38,-83 83,-83 47,0 84,38 84,83 1,31 -16,58 -40,72zm522 -314l0 -105c0,-116 -94,-211 -211,-211 -118,0 -212,95 -212,211l0 105 -310 0c-34,0 -64,16 -85,41 -17,21 -28,50 -28,81l0 321c0,31 11,59 28,81 21,25 51,40 85,40l338 0c34,0 64,-15 85,-40 17,-22 28,-50 28,-81l0 -320 0 0 0 -1 0 -1c0,-30 -10,-58 -28,-80 -11,-13 -25,-24 -40,-31l0 -115c0,-77 62,-139 139,-139 77,0 139,62 139,139l0 105 72 0z"/>
 </g>
</svg>
