<?xml version="1.0" encoding="UTF-8" standalone="no"?>
<svg
   xmlns:dc="http://purl.org/dc/elements/1.1/"
   xmlns:cc="http://creativecommons.org/ns#"
   xmlns:rdf="http://www.w3.org/1999/02/22-rdf-syntax-ns#"
   xmlns:svg="http://www.w3.org/2000/svg"
   xmlns="http://www.w3.org/2000/svg"
   id="svg10"
   viewBox="0 0 811.46091 882.14579"
   style="clip-rule:evenodd;fill-rule:evenodd;image-rendering:optimizeQuality;shape-rendering:geometricPrecision;text-rendering:geometricPrecision"
   version="1.1"
   height="8.8213186mm"
   width="8.114481mm"
   xml:space="preserve"><metadata
   id="metadata14"><rdf:RDF><cc:Work
       rdf:about=""><dc:format>image/svg+xml</dc:format><dc:type
         rdf:resource="http://purl.org/dc/dcmitype/StillImage" /><dc:title></dc:title></cc:Work></rdf:RDF></metadata>
 <defs id="defs4"></defs>
 <g
   transform="translate(-229,-193.85417)"
   id="Слой_x0020_1">
  <metadata
   id="CorelCorpID_0Corel-Layer" />
  <path
   style="fill:#3e4550"
   id="path7"
   d="m 758,300 212,151 63,-90 c 21,-31 -9,-52 -9,-52 L 873,201 c 0,0 -31,-21 -52,9 z M 229,441 h 71 V 300 h -71 z m 71,71 h -71 v 141 h 71 z m 0,211 h -71 v 141 h 71 z m 0,212 h -71 v 141 h 71 z m 71,-86 v 227 l 212,-76 z m 66,-29 151,108 c 17,12 40,8 52,-9 L 914,530 c 12,-17 8,-40 -9,-52 L 754,370 c -17,-12 -40,-8 -52,9 L 428,768 c -12,17 -8,40 9,52 z m 67,-38 236,-335 97,69 -235,335 z"
   class="fil0" />
 </g>
</svg>