<?xml version="1.0" encoding="UTF-8"?>
<!DOCTYPE svg PUBLIC "-//W3C//DTD SVG 1.1//EN" "http://www.w3.org/Graphics/SVG/1.1/DTD/svg11.dtd">
<!-- Creator: CorelDRAW X8 -->
<svg xmlns="http://www.w3.org/2000/svg" xml:space="preserve" width="423.333mm" height="70.5554mm" version="1.1" style="shape-rendering:geometricPrecision; text-rendering:geometricPrecision; image-rendering:optimizeQuality; fill-rule:evenodd; clip-rule:evenodd"
viewBox="0 0 42333 7056"
 xmlns:xlink="http://www.w3.org/1999/xlink">
 <defs>
  <style type="text/css">
   <![CDATA[
    .str0 {stroke:#DEDFE6;stroke-width:20}
    .fil0 {fill:none}
    .fil1 {fill:#DEDFE6}
    .fil9 {fill:url(#id0)}
    .fil3 {fill:url(#id1)}
    .fil4 {fill:url(#id2)}
    .fil2 {fill:url(#id3)}
    .fil7 {fill:url(#id4)}
    .fil5 {fill:url(#id5)}
    .fil6 {fill:url(#id6)}
    .fil8 {fill:url(#id7)}
   ]]>
  </style>
  <linearGradient id="id0" gradientUnits="userSpaceOnUse" x1="4975.49" y1="3569.01" x2="4911.23" y2="2776.52">
   <stop offset="0" style="stop-opacity:1; stop-color:#7ABE41"/>
   <stop offset="1" style="stop-opacity:1; stop-color:#95CD36"/>
  </linearGradient>
  <linearGradient id="id1" gradientUnits="userSpaceOnUse" xlink:href="#id0" x1="38581.1" y1="4391.42" x2="38552.2" y2="3679.23">
  </linearGradient>
  <linearGradient id="id2" gradientUnits="userSpaceOnUse" xlink:href="#id0" x1="16836.1" y1="5659.47" x2="16768.4" y2="4825.2">
  </linearGradient>
  <linearGradient id="id3" gradientUnits="userSpaceOnUse" x1="38247.1" y1="5583.49" x2="38886.2" y2="3198.19">
   <stop offset="0" style="stop-opacity:1; stop-color:#2C448F"/>
   <stop offset="1" style="stop-opacity:1; stop-color:#603684"/>
  </linearGradient>
  <linearGradient id="id4" gradientUnits="userSpaceOnUse" xlink:href="#id0" x1="26915.7" y1="3646.86" x2="26875.6" y2="2849.18">
  </linearGradient>
  <linearGradient id="id5" gradientUnits="userSpaceOnUse" xlink:href="#id3" x1="15841.6" y1="4110.5" x2="16154.2" y2="3275.76">
  </linearGradient>
  <linearGradient id="id6" gradientUnits="userSpaceOnUse" xlink:href="#id3" x1="27193.9" y1="3515.49" x2="27528.7" y2="2523.14">
  </linearGradient>
  <linearGradient id="id7" gradientUnits="userSpaceOnUse" xlink:href="#id3" x1="4879.35" y1="3893.16" x2="5023.76" y2="3192.47">
  </linearGradient>
 </defs>
 <g id="Слой_x0020_1">
  <metadata id="CorelCorpID_0Corel-Layer"/>
  <g id="_2417997795952">
   <line class="fil0 str0" x1="29472" y1="3845" x2="36458" y2= "4391" />
   <g>
    <line class="fil0 str0" x1="37109" y1="2864" x2="35925" y2= "1551" />
    <path class="fil1" d="M35880 1290c-67,12 -129,49 -171,109 -42,59 -56,131 -44,197 11,67 48,129 108,171 60,42 131,56 198,45 66,-12 129,-49 171,-109 42,-59 56,-131 44,-197 -12,-67 -49,-129 -108,-171 -60,-42 -131,-56 -198,-45z"/>
   </g>
   <g>
    <line class="fil0 str0" x1="29027" y1="2379" x2="29921" y2= "1642" />
    <path class="fil1" d="M30055 1684c11,-34 9,-73 -9,-107 -18,-35 -49,-59 -83,-69 -35,-11 -73,-9 -108,9 -34,18 -58,49 -69,83 -11,34 -8,73 10,108 18,34 48,58 82,69 35,11 73,8 108,-10 35,-18 58,-48 69,-83z"/>
   </g>
   <g>
    <circle class="fil0 str0" cx="38575" cy="4391" r="2117"/>
    <path class="fil2" d="M38567 3156c-682,0 -1235,554 -1235,1235 0,453 245,851 611,1064 183,109 396,171 624,171 227,0 440,-62 623,-171 181,-106 335,-259 441,-440 109,-183 170,-396 170,-624 0,-681 -553,-1235 -1234,-1235zm532 762c-9,-10 -19,-17 -32,-17 -13,-2 -26,2 -36,11l-462 375c0,0 0,0 -2,0 -88,0 -156,70 -156,155 0,85 70,155 156,155 87,0 155,-70 155,-155 0,0 0,0 0,-2l377 -462c15,-17 15,-43 0,-60zm421 513c0,5 0,7 0,11l-702 0 -30 0c0,121 -100,221 -221,221 -122,0 -222,-100 -222,-221l-732 0c0,-4 0,-6 0,-11 0,-12 0,-27 0,-40 0,-528 428,-956 956,-956 528,0 956,428 956,956 -3,13 -5,28 -5,40z"/>
    <path class="fil3" d="M39003 3820c-11,5 -21,11 -30,19l-147 120c-46,-39 -102,-68 -161,-88 -69,-21 -145,-29 -220,-23 -155,13 -308,96 -413,230 -51,66 -91,145 -113,232 -6,21 -8,43 -12,66 0,4 -2,11 -2,15l-49 0c4,-394 323,-711 719,-711 160,0 307,53 428,140zm275 435l-273 55c0,-21 -2,-43 -6,-64l170 -211c4,-6 11,-12 13,-19 47,73 79,151 96,239z"/>
   </g>
   <line class="fil0 str0" x1="7069" y1="3845" x2="14055" y2= "4391" />
   <line class="fil0 str0" x1="18288" y1="4391" x2="25251" y2= "3845" />
   <g>
    <line class="fil0 str0" x1="14327" y1="3351" x2="13434" y2= "2614" />
    <path class="fil1" d="M13299 2656c-10,-34 -8,-73 10,-108 18,-34 48,-58 83,-69 34,-11 73,-8 107,10 35,18 59,48 70,83 10,34 8,73 -10,107 -18,35 -48,59 -83,70 -34,10 -73,8 -107,-10 -35,-18 -59,-49 -70,-83z"/>
   </g>
   <g>
    <line class="fil0 str0" x1="2892" y1="4181" x2="1783" y2= "4514" />
    <path class="fil1" d="M1675 4423c-23,27 -36,64 -33,103 4,39 22,72 50,96 27,23 64,36 103,33 38,-4 72,-22 96,-50 23,-28 36,-64 32,-103 -3,-39 -21,-73 -49,-96 -28,-23 -64,-36 -103,-33 -39,4 -73,22 -96,50z"/>
   </g>
   <g>
    <line class="fil0 str0" x1="17931" y1="3213" x2="19875" y2= "2211" />
    <path class="fil1" d="M19897 1991c57,6 111,33 149,81 38,47 54,105 48,161 -5,56 -32,110 -80,149 -47,38 -105,54 -161,48 -57,-5 -111,-32 -149,-80 -38,-47 -54,-105 -48,-161 5,-57 32,-111 80,-149 47,-39 105,-54 161,-49z"/>
   </g>
   <g>
    <line class="fil0 str0" x1="25362" y1="2990" x2="23626" y2= "2265" />
    <path class="fil1" d="M23430 2398c-34,-50 -49,-113 -37,-178 12,-64 49,-117 99,-152 51,-34 114,-49 178,-37 65,13 118,50 152,100 34,50 49,114 37,178 -12,64 -49,118 -100,152 -50,34 -113,49 -177,37 -65,-13 -118,-50 -152,-100z"/>
   </g>
   <g>
    <line class="fil0 str0" x1="3519" y1="2126" x2="2336" y2= "813" />
    <path class="fil1" d="M2291 552c-67,12 -129,49 -172,108 -42,60 -55,131 -44,198 12,67 49,129 109,171 59,42 130,56 197,44 67,-11 129,-48 171,-108 42,-60 56,-131 45,-198 -12,-66 -49,-129 -109,-171 -60,-42 -131,-56 -197,-44z"/>
   </g>
   <g>
    <circle class="fil0 str0" cx="16171" cy="4391" r="2117"/>
    <g>
     <path class="fil4" d="M16802 4824c-231,0 -418,187 -418,418 0,231 187,419 418,419 231,0 419,-188 419,-419 -1,-231 -188,-418 -419,-418l0 0zm60 478l0 60c0,33 -27,60 -60,60 -33,0 -60,-27 -60,-60l0 -60 -59 0c-33,0 -60,-27 -60,-60 0,-33 27,-59 60,-59l59 0 0 -60c0,-33 27,-60 60,-60 33,0 60,27 60,60l0 60 60 0c33,0 60,26 60,59 0,33 -27,60 -60,60l-60 0z"/>
     <path class="fil5" d="M16860 4713l0 -1020 -402 0c0,0 0,0 0,0 -32,0 -58,-26 -58,-58 0,0 0,0 0,0l0 -402 -1205 0c0,0 0,0 0,0 -32,0 -57,26 -57,58 0,0 0,0 0,0l0 1951c0,0 0,0 0,0 0,32 25,58 57,58 0,0 0,0 0,0l1077 0c-2,-19 -3,-38 -3,-58 0,-294 239,-533 533,-533l0 0c20,0 39,1 58,4zm-334 -1446l0 311 310 0 -310 -311zm-413 228c32,0 58,26 58,57 0,32 -26,58 -58,58l-573 0c-32,0 -58,-26 -58,-58 0,-31 26,-57 58,-57l573 0zm-573 459l918 0c32,0 57,26 57,57 0,32 -25,58 -57,58l-918 0c-32,0 -58,-26 -58,-58 0,-31 89,-57 58,-57l0 0zm0 459l918 0c32,0 57,26 57,58 0,31 -25,57 -57,57l-918 0c-32,0 -58,-26 -58,-57 0,-32 80,-80 58,-58l0 0zm573 574l-573 0c-32,0 -58,-26 -58,-57 0,-32 26,-58 58,-58l573 0c32,0 58,26 58,58 0,31 -35,35 -58,57l0 0z"/>
    </g>
   </g>
   <g>
    <circle class="fil0 str0" cx="27362" cy="3685" r="2117"/>
    <g>
     <path class="fil6" d="M27045 3758l-79 85 -37 -12c37,30 73,55 116,79l0 -152zm1036 298l-43 37 -73 -92c317,-329 342,-847 43,-1200 -317,-378 -884,-421 -1262,-104 -176,146 -274,347 -304,561 6,0 18,6 24,6l189 67c12,-177 91,-347 232,-469 126,-108 279,-162 431,-162 189,0 381,83 513,241 238,280 207,707 -73,951 -280,243 -707,201 -951,-80 -36,-42 -67,-91 -91,-146l-268 -97c30,140 91,268 189,384 298,353 822,414 1194,152l79 91 -42 37 275 319 207 -177 -269 -319zm153 606c49,55 134,67 189,18 55,-49 67,-134 18,-189l-36 -42 -207 176 36 37zm-1829 -984l-152 116 0 1091 292 0 0 -938c-61,-86 -109,-177 -140,-269zm847 659l0 548 287 0 0 -573c-92,25 -189,31 -287,25zm287 -403l0 -731 -6 0 -281 317 0 451c6,0 12,0 25,0 91,12 182,0 262,-37zm-787 220l0 731 293 0 0 -591c-104,-24 -207,-73 -293,-140z"/>
     <path class="fil7" d="M27539 2849l-305 61 85 80 -445 505 -438 -164c-31,-12 -68,-6 -92,12l-91 70 0 189 164 -125 445 165c37,12 79,0 110,-25l469 -530 79 73 19 -311z"/>
    </g>
   </g>
   <g>
    <circle class="fil0 str0" cx="4950" cy="3685" r="2117"/>
    <path class="fil8" d="M5760 3547l5 -29c5,-44 32,-128 42,-172 -30,10 -50,32 -57,64 -10,34 -37,115 -42,157 17,-7 35,-10 54,-10 -2,-5 -2,-7 -2,-10zm-807 -948c-317,0 -574,257 -574,574 0,317 257,574 574,574 317,0 574,-257 574,-574 0,-317 -257,-574 -574,-574zm0 1086c-283,0 -513,-230 -513,-512 0,-283 230,-513 513,-513 282,0 512,230 512,513 0,282 -230,512 -512,512zm-213 744l0 0 0 0c0,20 0,45 -5,72l-12 240c0,18 -15,32 -32,32l-378 -2c-18,0 -32,-15 -32,-32l-8 -199 -356 -430c-54,-57 -88,-118 -101,-194l-2 -22 -62 -605c-2,-29 8,-61 30,-78 27,-22 71,-32 106,7 22,27 34,108 39,130 12,79 27,192 29,273 0,5 0,12 0,17 3,35 10,66 25,98 79,175 241,396 241,396l10 12c7,10 19,13 31,8 13,-8 15,-22 10,-32l-213 -349c-23,-39 -10,-94 32,-121 41,-24 95,-12 120,27l223 288c15,20 42,47 62,59 201,145 226,290 246,366 -5,0 -5,17 -3,39zm-720 -850c0,8 0,12 0,20 8,-8 15,-12 25,-17 10,-8 22,-13 34,-15 0,0 0,-3 3,-3 -8,-61 -30,-179 -47,-240 -7,-30 -27,-54 -57,-64 8,22 10,42 15,64 10,66 27,189 27,255zm123 -32c0,3 0,5 0,10 17,0 37,5 54,10 -5,-39 -32,-121 -42,-160 -7,-29 -24,-51 -56,-64 10,45 34,128 42,172l2 32zm1872 -331c-22,27 -34,108 -39,130 -12,78 -27,191 -29,272 0,5 0,13 0,18 -3,34 -10,66 -25,98 -79,177 -241,398 -241,398l-10 12c-7,10 -19,13 -32,8 -12,-8 -14,-22 -9,-32l213 -349c22,-39 10,-94 -32,-121 -41,-24 -95,-12 -120,27l-224 288c-14,20 -41,47 -61,59 -201,145 -226,290 -246,366 0,0 -2,17 -2,42l0 0c0,19 0,44 5,71l12 241c0,17 15,32 32,32l383 -5c17,0 32,-15 32,-32l8 -199 358 -430c54,-57 89,-118 101,-194l3 -22 61 -605c2,-29 -7,-61 -30,-78 -29,-25 -73,-32 -108,5zm-157 366c10,5 17,12 25,17 0,-8 0,-12 0,-20 2,-66 17,-189 29,-258 3,-19 8,-42 15,-64 -32,10 -49,32 -57,64 -17,62 -39,180 -46,241 0,0 0,2 2,2 10,5 20,10 32,18z"/>
    <path class="fil9" d="M4943 2775c-219,0 -397,179 -397,398 0,219 178,397 397,397 220,0 398,-178 398,-397 0,-219 -178,-398 -398,-398zm-31 626c-113,-20 -21,-152 -21,-152 94,-155 -28,-118 -28,-118 107,-100 137,-12 137,-12 23,26 -61,208 -61,208 -19,43 68,35 68,35 -38,54 -95,39 -95,39zm48 -349c-31,0 -56,-25 -56,-56 0,-30 25,-55 56,-55 30,0 55,25 55,55 0,31 -25,56 -55,56z"/>
   </g>
  </g>
 </g>
</svg>
